<svg width="29" height="28" viewBox="0 0 29 28" fill="none" xmlns="http://www.w3.org/2000/svg">
<path d="M15.0764 6.39971C15.3309 6.14378 15.676 6 16.0359 6C16.3958 6 16.7409 6.14378 16.9954 6.39971L23.1026 12.5431C23.3571 12.7991 23.5 13.1462 23.5 13.5082C23.5 13.8702 23.3571 14.2174 23.1026 14.4734L16.9954 20.6168C16.7394 20.8655 16.3966 21.0031 16.0408 20.9999C15.6849 20.9968 15.3445 20.8533 15.0929 20.6001C14.8413 20.347 14.6985 20.0046 14.6955 19.6467C14.6924 19.2887 14.8292 18.9439 15.0764 18.6864L18.7502 14.8734H5.85716C5.49722 14.8734 5.15202 14.7296 4.8975 14.4736C4.64299 14.2176 4.5 13.8703 4.5 13.5082C4.5 13.1462 4.64299 12.7989 4.8975 12.5429C5.15202 12.2869 5.49722 12.1431 5.85716 12.1431H18.7502L15.0764 8.33008C14.8219 8.07407 14.679 7.7269 14.679 7.3649C14.679 7.0029 14.8219 6.65572 15.0764 6.39971Z" fill="white"/>
</svg>
