<svg width="47" height="44" viewBox="0 0 47 44" fill="none" xmlns="http://www.w3.org/2000/svg">
<g filter="url(#filter0_d_493_137)">
<path d="M38.0833 0.25C39.1884 0.25 40.2482 0.688987 41.0296 1.47039C41.811 2.25179 42.25 3.3116 42.25 4.41667V33.5833C42.25 34.6884 41.811 35.7482 41.0296 36.5296C40.2482 37.311 39.1884 37.75 38.0833 37.75H8.91667C7.8116 37.75 6.75179 37.311 5.97039 36.5296C5.18899 35.7482 4.75 34.6884 4.75 33.5833V4.41667C4.75 3.3116 5.18899 2.25179 5.97039 1.47039C6.75179 0.688987 7.8116 0.25 8.91667 0.25H38.0833ZM37.0417 32.5417V21.5C37.0417 19.6987 36.3261 17.9712 35.0524 16.6976C33.7787 15.4239 32.0513 14.7083 30.25 14.7083C28.4792 14.7083 26.4167 15.7917 25.4167 17.4167V15.1042H19.6042V32.5417H25.4167V22.2708C25.4167 20.6667 26.7083 19.3542 28.3125 19.3542C29.086 19.3542 29.8279 19.6615 30.3749 20.2084C30.9219 20.7554 31.2292 21.4973 31.2292 22.2708V32.5417H37.0417ZM12.8333 11.8333C13.7616 11.8333 14.6518 11.4646 15.3082 10.8082C15.9646 10.1518 16.3333 9.26159 16.3333 8.33333C16.3333 6.39583 14.7708 4.8125 12.8333 4.8125C11.8996 4.8125 11.004 5.18344 10.3437 5.84373C9.68344 6.50401 9.3125 7.39955 9.3125 8.33333C9.3125 10.2708 10.8958 11.8333 12.8333 11.8333ZM15.7292 32.5417V15.1042H9.95833V32.5417H15.7292Z" fill="white"/>
</g>
<defs>
<filter id="filter0_d_493_137" x="0.75" y="0.25" width="45.5" height="45.5" filterUnits="userSpaceOnUse" color-interpolation-filters="sRGB">
<feFlood flood-opacity="0" result="BackgroundImageFix"/>
<feColorMatrix in="SourceAlpha" type="matrix" values="0 0 0 0 0 0 0 0 0 0 0 0 0 0 0 0 0 0 127 0" result="hardAlpha"/>
<feOffset dy="4"/>
<feGaussianBlur stdDeviation="2"/>
<feComposite in2="hardAlpha" operator="out"/>
<feColorMatrix type="matrix" values="0 0 0 0 0 0 0 0 0 0 0 0 0 0 0 0 0 0 0.25 0"/>
<feBlend mode="normal" in2="BackgroundImageFix" result="effect1_dropShadow_493_137"/>
<feBlend mode="normal" in="SourceGraphic" in2="effect1_dropShadow_493_137" result="shape"/>
</filter>
</defs>
</svg>
