<svg aria-hidden="true" style="position: absolute; width: 0; height: 0; overflow: hidden;" version="1.1" xmlns="http://www.w3.org/2000/svg" xmlns:xlink="http://www.w3.org/1999/xlink">
  <defs>

<symbol id="LOGO" viewBox="0 0 57 32">
<path fill="none" stroke="#228b22" style="stroke: var(--color1, #228b22)" stroke-linejoin="miter" stroke-linecap="round" stroke-miterlimit="4" stroke-width="0.5818" d="M14.816 14.527c-8.58 2.263-9.715-2.854-10.097-4.722-2.323 5.932-2.124 8.59 5.533 10.167"></path>
<path fill="#228b22" style="fill: var(--color1, #228b22); stroke: var(--color1, #228b22)" opacity="0.266667" stroke="#228b22" stroke-linejoin="miter" stroke-linecap="butt" stroke-miterlimit="4" stroke-width="0.5818" d="M8.837 21.155c0 0.33-0.302 0.642-0.732 0.642s-0.732-0.312-0.732-0.642c0-0.33 0.302-0.642 0.732-0.642s0.732 0.312 0.732 0.642z"></path>
<path fill="#f8c23d" style="fill: var(--color2, #f8c23d)" d="M17.966 27.452c-5.256 4.955-11.036 4.583-14.539 1.762-1.882-1.516-3.114-3.741-3.266-6.248-0.148-2.432 0.719-5.14 3.016-7.732 0.083 0.596 0.198 1.065 0.393 1.476 0.212 0.448 0.516 0.817 0.958 1.206-0.56 0.716-1.407 2.263-1.393 3.885l-1.859 0.876 1.885 0.819c0.582 2.032 1.743 3.392 3.193 4.246 1.463 0.861 3.212 1.203 4.946 1.216s3.462-0.304 4.889-0.771c0.663-0.217 1.266-0.467 1.777-0.735z"></path>
<path fill="#074906" style="fill: var(--color3, #074906); stroke: var(--color3, #074906)" stroke="#074906" stroke-linejoin="miter" stroke-linecap="round" stroke-miterlimit="4" stroke-width="1.7455" d="M16.551 3.5v-0.873h-10.141v-1.754h12.529v12.504c0 0.921-0.076 1.972-0.335 2.803-0.153 0.49-0.337 0.812-0.54 1.011-0.328-0.515-0.643-0.963-0.948-1.396l-0.006-0.008c-0.33-0.469-0.648-0.922-0.975-1.443 0.29-0.475 0.385-0.994 0.415-1.48 0.020-0.316 0.013-0.685 0.007-1.037-0.003-0.164-0.006-0.325-0.006-0.474v-7.853z"></path>
<path fill="#074906" style="fill: var(--color3, #074906); stroke: var(--color3, #074906)" stroke="#074906" stroke-linejoin="miter" stroke-linecap="round" stroke-miterlimit="4" stroke-width="1.7455" d="M16.494 3.528v-0.873h-10.141v-1.754h12.529v12.504c0 0.921-0.076 1.972-0.335 2.803-0.153 0.49-0.337 0.812-0.54 1.011-0.328-0.515-0.643-0.963-0.948-1.396l-0.006-0.008c-0.33-0.469-0.648-0.922-0.975-1.443 0.29-0.475 0.384-0.994 0.415-1.48 0.020-0.316 0.013-0.685 0.007-1.037-0.003-0.164-0.006-0.325-0.006-0.475v-7.853z"></path>
<path fill="#074906" style="fill: var(--color3, #074906); stroke: var(--color3, #074906)" stroke="#074906" stroke-linejoin="miter" stroke-linecap="round" stroke-miterlimit="4" stroke-width="1.7455" d="M16.437 3.557v-0.873h-10.141v-1.754h12.529v12.504c0 0.921-0.076 1.972-0.335 2.803-0.153 0.49-0.337 0.812-0.54 1.011-0.328-0.515-0.643-0.963-0.948-1.396l-0.006-0.008c-0.33-0.469-0.648-0.922-0.975-1.443 0.29-0.475 0.384-0.994 0.415-1.48 0.020-0.316 0.013-0.685 0.007-1.037-0.003-0.164-0.006-0.325-0.006-0.474v-7.853z"></path>
<path fill="#074906" style="fill: var(--color3, #074906); stroke: var(--color3, #074906)" stroke="#074906" stroke-linejoin="miter" stroke-linecap="round" stroke-miterlimit="4" stroke-width="1.7455" d="M16.379 3.585v-0.873h-10.141v-1.754h12.529v12.504c0 0.921-0.076 1.972-0.335 2.803-0.153 0.49-0.337 0.812-0.54 1.011-0.328-0.515-0.643-0.963-0.948-1.396l-0.006-0.008c-0.33-0.469-0.648-0.922-0.975-1.443 0.29-0.475 0.384-0.994 0.415-1.48 0.020-0.316 0.013-0.685 0.007-1.037-0.003-0.164-0.006-0.325-0.006-0.474v-7.853z"></path>
<path fill="#074906" style="fill: var(--color3, #074906); stroke: var(--color3, #074906)" stroke="#074906" stroke-linejoin="miter" stroke-linecap="round" stroke-miterlimit="4" stroke-width="1.7455" d="M16.322 3.614v-0.873h-10.141v-1.754h12.529v12.504c0 0.921-0.076 1.972-0.335 2.803-0.153 0.49-0.337 0.812-0.54 1.011-0.328-0.515-0.643-0.963-0.948-1.396l-0.006-0.008c-0.33-0.469-0.648-0.922-0.975-1.443 0.29-0.475 0.384-0.994 0.415-1.48 0.020-0.316 0.013-0.685 0.007-1.037-0.003-0.164-0.006-0.325-0.006-0.475v-7.853z"></path>
<path fill="#228b22" style="fill: var(--color1, #228b22); stroke: var(--color1, #228b22)" stroke="#228b22" stroke-linejoin="miter" stroke-linecap="round" stroke-miterlimit="4" stroke-width="1.7455" d="M16.264 3.643v-0.873h-10.141v-1.754h12.529v12.504c0 0.921-0.076 1.972-0.335 2.803-0.153 0.49-0.337 0.812-0.54 1.011-0.328-0.515-0.643-0.963-0.948-1.396l-0.006-0.008c-0.33-0.469-0.648-0.922-0.975-1.443 0.29-0.475 0.384-0.994 0.415-1.48 0.020-0.316 0.013-0.685 0.007-1.037-0.003-0.164-0.006-0.325-0.006-0.474v-7.853z"></path>
<path fill="#f8c23d" style="fill: var(--color2, #f8c23d)" d="M12.78 15.167l-0.031-0.006-0.031 0.007c-1.554 0.363-3.087 0.044-4.308-0.543-1.227-0.59-2.11-1.437-2.388-2.099-0.044-0.105-0.024-0.226 0.111-0.372 0.137-0.149 0.377-0.302 0.706-0.442 0.656-0.278 1.623-0.485 2.7-0.529 2.162-0.089 4.696 0.48 6.032 2.352 0.014 0.020 0.026 0.040 0.036 0.062 0.106 0.229 0.61 1.318 1.127 2.561 0.366 0.88 0.735 1.829 0.975 2.603-0.619-0.923-1.186-1.641-1.835-2.195-0.821-0.7-1.766-1.131-3.095-1.399z"></path>
<path fill="none" stroke="#228b22" style="stroke: var(--color1, #228b22)" stroke-linejoin="miter" stroke-linecap="round" stroke-miterlimit="4" stroke-width="0.8727" d="M19.030 21.115c0.99-0.766 1.487-1.342 2.162-2.892 0.952 2.867 0.682 4.397-1.431 6.969"></path>
<path fill="#074906" style="fill: var(--color3, #074906); stroke: var(--color3, #074906)" stroke="#074906" stroke-linejoin="miter" stroke-linecap="butt" stroke-miterlimit="4" stroke-width="0.4364" d="M23.738 6.065h-0.218v5.461c0 1.398 0.364 2.66 1.141 3.575 0.782 0.921 1.962 1.466 3.536 1.466s2.754-0.545 3.536-1.466c0.778-0.916 1.141-2.177 1.141-3.575v-5.461h-2.193v5.461c0 0.958-0.214 1.667-0.615 2.135-0.396 0.462-1.003 0.722-1.87 0.722-0.794 0-1.406-0.261-1.821-0.73-0.419-0.473-0.663-1.184-0.663-2.127v-5.461h-1.975zM33.922 16.070v0.218h2.193v-6.251l5.152 6.251h1.74v-10.223h-2.193v6.251l-5.152-6.251h-1.74v10.005zM23.655 31.049v0.218h2.193v-5.313h4.564v5.313h2.193v-10.223h-2.193v2.796h-4.564v-2.796h-2.193v10.005zM33.79 31.049v0.218h2.193v-10.223h-2.193v10.005zM37.168 31.049v0.218h2.193v-3.165l2.65-0.248 2.006 3.413h2.532l-2.236-3.823c1.308-0.533 2.074-1.646 2.074-2.966v-3.434h-9.22v10.005zM47.435 31.049v0.218h2.193v-3.165l3.585-0.331c0 0 0 0 0 0 2.117-0.19 3.442-1.551 3.442-3.293v-3.434h-9.22v10.005zM42.838 25.659l-3.477 0.327v-2.828h4.834v1.25c0 0.459-0.173 0.744-0.413 0.928-0.25 0.192-0.593 0.29-0.943 0.323zM53.105 25.659l-3.477 0.327v-2.828h4.834v1.25c0 0.459-0.173 0.744-0.413 0.928-0.25 0.192-0.593 0.29-0.943 0.323z"></path>
<path fill="#074906" style="fill: var(--color3, #074906); stroke: var(--color3, #074906)" stroke="#074906" stroke-linejoin="miter" stroke-linecap="butt" stroke-miterlimit="4" stroke-width="0.4364" d="M23.681 6.094h-0.218v5.461c0 1.398 0.364 2.66 1.141 3.575 0.782 0.921 1.962 1.466 3.536 1.466s2.754-0.545 3.536-1.466c0.778-0.916 1.141-2.177 1.141-3.575v-5.461h-2.193v5.461c0 0.958-0.214 1.667-0.615 2.135-0.396 0.462-1.003 0.722-1.87 0.722-0.794 0-1.406-0.261-1.821-0.73-0.419-0.473-0.663-1.184-0.663-2.127v-5.461h-1.975zM33.864 16.098v0.218h2.193v-6.251l5.152 6.251h1.74v-10.223h-2.193v6.251l-5.152-6.251h-1.74v10.005zM23.598 31.078v0.218h2.193v-5.313h4.564v5.313h2.193v-10.223h-2.193v2.796h-4.564v-2.796h-2.193v10.005zM33.732 31.078v0.218h2.193v-10.223h-2.193v10.005zM37.111 31.078v0.218h2.193v-3.165l2.65-0.248 2.006 3.413h2.532l-2.236-3.823c1.308-0.533 2.074-1.646 2.074-2.966v-3.434h-9.22v10.005zM47.378 31.078v0.218h2.193v-3.165l3.585-0.331c0 0 0 0 0 0 2.117-0.19 3.442-1.551 3.442-3.293v-3.434h-9.22v10.005zM42.781 25.688l-3.478 0.327v-2.828h4.834v1.25c0 0.459-0.173 0.744-0.413 0.928-0.25 0.192-0.593 0.29-0.943 0.323zM53.048 25.688l-3.478 0.327v-2.828h4.834v1.25c0 0.459-0.173 0.744-0.413 0.928-0.25 0.192-0.593 0.29-0.943 0.323z"></path>
<path fill="#074906" style="fill: var(--color3, #074906); stroke: var(--color3, #074906)" stroke="#074906" stroke-linejoin="miter" stroke-linecap="butt" stroke-miterlimit="4" stroke-width="0.4364" d="M23.623 6.122h-0.218v5.461c0 1.398 0.364 2.66 1.141 3.575 0.782 0.921 1.962 1.466 3.536 1.466s2.754-0.545 3.536-1.466c0.778-0.916 1.141-2.177 1.141-3.575v-5.461h-2.193v5.461c0 0.958-0.214 1.667-0.615 2.135-0.396 0.462-1.003 0.722-1.87 0.722-0.794 0-1.406-0.261-1.821-0.73-0.419-0.473-0.663-1.184-0.663-2.127v-5.461h-1.975zM33.807 16.127v0.218h2.193v-6.251l5.152 6.251h1.74v-10.223h-2.193v6.251l-5.152-6.251h-1.74v10.005zM23.54 31.106v0.218h2.193v-5.313h4.564v5.313h2.193v-10.223h-2.193v2.796h-4.564v-2.796h-2.193v10.005zM33.675 31.106v0.218h2.193v-10.223h-2.193v10.005zM37.053 31.106v0.218h2.193v-3.165l2.65-0.248 2.006 3.413h2.532l-2.236-3.823c1.308-0.533 2.074-1.646 2.074-2.966v-3.434h-9.22v10.005zM47.32 31.106v0.218h2.193v-3.165l3.585-0.331c0 0 0 0 0 0 2.117-0.19 3.442-1.551 3.442-3.293v-3.434h-9.22v10.005zM42.724 25.716l-3.478 0.327v-2.828h4.834v1.25c0 0.459-0.173 0.744-0.413 0.928-0.25 0.192-0.593 0.29-0.943 0.323zM52.991 25.716l-3.477 0.327v-2.828h4.834v1.25c0 0.459-0.173 0.744-0.413 0.928-0.25 0.192-0.593 0.29-0.943 0.323z"></path>
<path fill="#074906" style="fill: var(--color3, #074906); stroke: var(--color3, #074906)" stroke="#074906" stroke-linejoin="miter" stroke-linecap="butt" stroke-miterlimit="4" stroke-width="0.4364" d="M23.566 6.151h-0.218v5.461c0 1.398 0.364 2.66 1.141 3.575 0.782 0.921 1.962 1.466 3.536 1.466s2.754-0.545 3.536-1.466c0.778-0.916 1.141-2.177 1.141-3.575v-5.461h-2.193v5.461c0 0.958-0.214 1.667-0.615 2.135-0.396 0.462-1.003 0.722-1.87 0.722-0.794 0-1.406-0.261-1.821-0.73-0.419-0.473-0.663-1.184-0.663-2.127v-5.461h-1.975zM33.75 16.156v0.218h2.193v-6.251l5.152 6.251h1.74v-10.223h-2.193v6.251l-5.152-6.251h-1.74v10.005zM23.483 31.135v0.218h2.193v-5.313h4.564v5.313h2.193v-10.223h-2.193v2.796h-4.564v-2.796h-2.193v10.005zM33.618 31.135v0.218h2.193v-10.223h-2.193v10.005zM36.996 31.135v0.218h2.193v-3.165l2.65-0.248 2.006 3.413h2.532l-2.236-3.823c1.308-0.533 2.074-1.646 2.074-2.966v-3.434h-9.22v10.005zM47.263 31.135v0.218h2.193v-3.165l3.585-0.331c0 0 0 0 0 0 2.117-0.19 3.442-1.551 3.442-3.293v-3.434h-9.22v10.005zM42.667 25.745l-3.477 0.327v-2.828h4.834v1.25c0 0.459-0.173 0.744-0.413 0.928-0.25 0.192-0.593 0.29-0.943 0.323zM52.934 25.745l-3.478 0.327v-2.828h4.834v1.25c0 0.459-0.173 0.744-0.413 0.928-0.25 0.192-0.593 0.29-0.943 0.323z"></path>
<path fill="#074906" style="fill: var(--color3, #074906); stroke: var(--color3, #074906)" stroke="#074906" stroke-linejoin="miter" stroke-linecap="butt" stroke-miterlimit="4" stroke-width="0.4364" d="M23.509 6.179h-0.218v5.448c0 1.395 0.364 2.654 1.142 3.567 0.782 0.919 1.962 1.463 3.536 1.463s2.754-0.544 3.536-1.463c0.778-0.913 1.142-2.172 1.142-3.567v-5.448h-2.193v5.448c0 0.955-0.214 1.663-0.615 2.129-0.396 0.461-1.003 0.721-1.87 0.721-0.794 0-1.406-0.261-1.822-0.729-0.419-0.472-0.663-1.181-0.663-2.121v-5.448h-1.975zM33.693 16.16v0.218h2.193v-6.236l5.152 6.236h1.74v-10.199h-2.193v6.236l-5.152-6.236h-1.74v9.981zM23.426 31.103v0.218h2.193v-5.3h4.564v5.3h2.193v-10.199h-2.193v2.789h-4.564v-2.789h-2.193v9.981zM33.561 31.103v0.218h2.193v-10.199h-2.193v9.981zM36.939 31.103v0.218h2.193v-3.157l2.651-0.248 2.006 3.405h2.533l-2.237-3.814c1.307-0.532 2.074-1.642 2.074-2.959v-3.426h-9.22v9.981zM47.206 31.103v0.218h2.193v-3.157l3.585-0.33c0 0 0 0 0 0 2.116-0.189 3.442-1.547 3.442-3.286v-3.426h-9.22v9.981zM42.61 25.725l-3.478 0.326v-2.82h4.834v1.246c0 0.457-0.173 0.741-0.413 0.925-0.25 0.192-0.593 0.289-0.943 0.322zM52.877 25.725l-3.478 0.326v-2.82h4.834v1.246c0 0.457-0.173 0.741-0.413 0.925-0.25 0.192-0.593 0.289-0.943 0.322z"></path>
<path fill="#228b22" style="fill: var(--color1, #228b22); stroke: var(--color1, #228b22)" stroke="#228b22" stroke-linejoin="miter" stroke-linecap="butt" stroke-miterlimit="4" stroke-width="0.4364" d="M23.452 6.208h-0.218v5.461c0 1.398 0.364 2.66 1.141 3.575 0.782 0.921 1.962 1.466 3.536 1.466s2.754-0.545 3.536-1.466c0.778-0.916 1.141-2.177 1.141-3.575v-5.461h-2.193v5.461c0 0.958-0.214 1.667-0.615 2.135-0.396 0.462-1.003 0.722-1.87 0.722-0.794 0-1.406-0.261-1.821-0.73-0.419-0.473-0.663-1.184-0.663-2.127v-5.461h-1.975zM33.635 16.213v0.218h2.193v-6.251l5.152 6.251h1.74v-10.223h-2.193v6.251l-5.152-6.251h-1.74v10.005zM33.503 31.192v0.218h2.193v-10.223h-2.193v10.005zM36.882 31.192v0.218h2.193v-3.165l2.65-0.248 2.006 3.413h2.532l-2.236-3.823c1.308-0.534 2.074-1.646 2.074-2.966v-3.434h-9.22v10.005zM47.149 31.192v0.218h2.193v-3.165l3.585-0.331c0 0 0-0 0-0 2.117-0.19 3.442-1.551 3.442-3.293v-3.434h-9.22v10.005zM42.552 25.802l-3.477 0.327v-2.828h4.834v1.25c0 0.459-0.173 0.744-0.413 0.928-0.25 0.192-0.593 0.29-0.943 0.323zM52.819 25.802l-3.477 0.327v-2.828h4.834v1.25c0 0.459-0.173 0.744-0.413 0.928-0.25 0.192-0.593 0.29-0.943 0.323z"></path>
<path fill="#228b22" style="fill: var(--color1, #228b22); stroke: var(--color1, #228b22)" stroke="#228b22" stroke-linejoin="miter" stroke-linecap="butt" stroke-miterlimit="4" stroke-width="0.4364" d="M23.369 31.192v0.218h2.193v-5.313h4.564v5.313h2.193v-10.223h-2.193v2.796h-4.564v-2.796h-2.193v10.005z"></path>
</symbol>


<symbol id="future-of-it" viewBox="0 0 276 32">
<path fill="#228b22" style="fill: var(--color1, #228b22)" d="M0 31.342v-30.714h25.516v5.265h-19.797v6.143h14.738v5.265h-14.738v14.041h-5.719z"></path>
<path fill="#228b22" style="fill: var(--color1, #228b22)" d="M39.37 32c-7.424 0-10.888-4.936-10.888-11.353v-12.341h4.289v12.341c0 4.607 2.475 7.24 6.599 7.24 4.454 0 6.599-2.6 6.599-7.24v-12.341h4.289v12.341c0 6.417-3.464 11.353-10.888 11.353z"></path>
<path fill="#228b22" style="fill: var(--color1, #228b22)" d="M60.809 31.342v-19.087h-8.249v-3.949h20.787v3.949h-8.248v19.087h-4.29z"></path>
<path fill="#228b22" style="fill: var(--color1, #228b22)" d="M86.542 32c-7.424 0-10.888-4.936-10.888-11.353v-12.341h4.289v12.341c0 4.607 2.475 7.24 6.599 7.24 4.454 0 6.599-2.6 6.599-7.24v-12.341h4.289v12.341c0 6.417-3.464 11.353-10.888 11.353z"></path>
<path fill="#228b22" style="fill: var(--color1, #228b22)" d="M101.052 31.342v-23.036h21.447v7.569c0 3.060-1.947 5.627-5.312 6.713l5.312 8.754h-4.949l-4.916-8.063-7.292 0.658v7.404h-4.289zM105.341 19.988l9.074-0.823c1.815-0.165 3.795-0.987 3.795-3.455v-3.455h-12.868v7.733z"></path>
<path fill="#228b22" style="fill: var(--color1, #228b22)" d="M126.121 31.342v-23.036h19.797v3.949h-15.507v3.784h11.713v3.949h-11.713v7.404h15.507v3.949h-19.797z"></path>
<path fill="#228b22" style="fill: var(--color1, #228b22)" d="M177.434 32c-8.248 0-12.703-5.924-12.703-12.176s4.454-12.176 12.703-12.176c8.249 0 12.703 5.924 12.703 12.176s-4.454 12.176-12.703 12.176zM177.434 28.051c4.949 0 8.414-3.62 8.414-8.227s-3.465-8.227-8.414-8.227c-4.949 0-8.413 3.62-8.413 8.227s3.465 8.227 8.413 8.227z"></path>
<path fill="#228b22" style="fill: var(--color1, #228b22)" d="M193.109 31.342v-23.036h19.137v3.949h-14.847v4.607h11.053v3.949h-11.053v10.531h-4.289z"></path>
<path fill="#228b22" style="fill: var(--color1, #228b22)" d="M237.869 31.342v-30.714h5.719v30.714h-5.719z"></path>
<path fill="#228b22" style="fill: var(--color1, #228b22)" d="M258.106 31.342v-25.449h-10.999v-5.265h27.716v5.265h-10.998v25.449h-5.719z"></path>
</symbol>

<symbol id="exit" viewBox="0 0 32 32">
<path d="M24 20v-4h-10v-4h10v-4l6 6zM22 18v8h-10v6l-12-6v-26h22v10h-2v-8h-16l8 4v18h8v-6z"></path>
</symbol>

    <symbol id="email" viewBox="0 0 32 32">
      <path d="M26.667 5.333h-21.333c-1.467 0-2.653 1.2-2.653 2.667l-0.013 16c0 1.467 1.2 2.667 2.667 2.667h21.333c1.467 0 2.667-1.2 2.667-2.667v-16c0-1.467-1.2-2.667-2.667-2.667zM26.667 10.667l-10.667 6.667-10.667-6.667v-2.667l10.667 6.667 10.667-6.667v2.667z"></path>
    </symbol>

   

    <symbol id="icon" viewBox="0 0 27 32">
   <path fill="#b3261e" style="fill: var(--color1, #b3261e)" d="M4.031 25.875l6.281-8.625-9.437-2.813 1.469-4.688 9.437 3.469-0.281-10.75h4.75l-0.313 10.938 9.313-3.469 1.438 4.781-9.594 2.844 6.156 8.469-3.875 2.906-5.781-9-5.656 8.781-3.906-2.844z"></path>
   </symbol>

<symbol id="eye-close" viewBox="0 0 32 32">
<path d="M19.599 14.153l0.981-0.981c1.253 0.723 2.087 1.721 2.087 2.828 0 2.209-3.305 3.995-6.667 4-0.684 0-1.366-0.072-2.035-0.213l1.165-1.164c0.284 0.029 0.575 0.045 0.869 0.044h0.001c-0.277 0-0.543-0.042-0.794-0.12l1.321-1.321c0.313-0.135 0.565-0.386 0.7-0.699l1.32-1.321c0.124 0.398 0.153 0.82 0.085 1.231s-0.232 0.801-0.478 1.138c-0.246 0.337-0.568 0.611-0.939 0.801s-0.782 0.29-1.199 0.292c2.83-0.010 5.319-1.456 5.319-2.667 0-0.629-0.681-1.324-1.735-1.847zM13.397 16.583c-0.087-0.39-0.086-0.794 0.004-1.183s0.266-0.753 0.515-1.065c0.249-0.312 0.566-0.564 0.925-0.737s0.754-0.264 1.153-0.264c-2.812-0.010-5.329 1.452-5.329 2.667 0 0.597 0.603 1.251 1.551 1.763l-0.972 0.971c-1.157-0.715-1.913-1.677-1.913-2.733 0-2.209 3.323-4.011 6.667-4 0.609 0.002 1.218 0.063 1.806 0.175l-1.185 1.184c-0.193-0.015-0.389-0.023-0.587-0.025 0.188 0.003 0.371 0.025 0.549 0.064l-3.186 3.186zM22.061 9.805c0.125 0.125 0.195 0.295 0.195 0.471s-0.070 0.346-0.195 0.471l-11.313 11.313c-0.061 0.064-0.135 0.115-0.216 0.15s-0.169 0.053-0.257 0.054c-0.089 0.001-0.176-0.016-0.258-0.049s-0.156-0.083-0.219-0.145c-0.063-0.063-0.112-0.137-0.146-0.219s-0.051-0.17-0.050-0.258c0.001-0.088 0.019-0.176 0.054-0.257s0.086-0.155 0.149-0.217l11.313-11.313c0.062-0.062 0.135-0.111 0.216-0.145s0.168-0.051 0.255-0.051c0.088 0 0.174 0.017 0.255 0.051s0.154 0.082 0.216 0.144z"></path>
</symbol>

<symbol id="eye" viewBox="0 0 32 32">
<path d="M22.4 16c0-1.448-3.008-3.188-6.406-3.2-3.374-0.012-6.394 1.742-6.394 3.2 0 1.46 3.003 3.205 6.398 3.2 3.404-0.005 6.402-1.744 6.402-3.2zM16 20.8c-4.034 0.006-8-2.149-8-4.8s3.987-4.814 8-4.8c4.013 0.014 8 2.149 8 4.8s-3.966 4.794-8 4.8zM16 19.2c-0.849 0-1.663-0.337-2.263-0.937s-0.937-1.414-0.937-2.263c0-0.849 0.337-1.663 0.937-2.263s1.414-0.937 2.263-0.937 1.663 0.337 2.263 0.937c0.6 0.6 0.937 1.414 0.937 2.263s-0.337 1.663-0.937 2.263c-0.6 0.6-1.414 0.937-2.263 0.937zM16 17.6c0.424 0 0.831-0.169 1.131-0.469s0.469-0.707 0.469-1.131c0-0.424-0.169-0.831-0.469-1.131s-0.707-0.469-1.131-0.469-0.831 0.169-1.131 0.469c-0.3 0.3-0.469 0.707-0.469 1.131s0.169 0.831 0.469 1.131 0.707 0.469 1.131 0.469z"></path>
</symbol>


<symbol id="checkbox" viewBox="0 0 42 32">
<path fill="none" stroke="#3c0" style="stroke: var(--color1, #3c0)" stroke-linejoin="round" stroke-linecap="round" stroke-miterlimit="4" stroke-width="4.2667" d="M3.202 19.199l9.6 9.6 25.6-25.6"></path>
</symbol>


<symbol id="google" viewBox="0 0 32 32">
<path fill="#ffc107" style="fill: var(--color1, #ffc107)" d="M29.074 13.389h-1.074v-0.055h-12v5.333h7.535c-1.099 3.105-4.053 5.333-7.535 5.333-4.418 0-8-3.582-8-8s3.582-8 8-8c2.039 0 3.895 0.769 5.307 2.026l3.771-3.771c-2.381-2.219-5.567-3.588-9.079-3.588-7.363 0-13.333 5.97-13.333 13.333s5.97 13.333 13.333 13.333c7.363 0 13.333-5.97 13.333-13.333 0-0.894-0.092-1.767-0.259-2.611z"></path>
<path fill="#000" style="fill: var(--color2, #000)" opacity="0.3" d="M29.074 13.389h-1.074v-0.055h-12v5.333h7.535c-1.099 3.105-4.053 5.333-7.535 5.333-4.418 0-8-3.582-8-8s3.582-8 8-8c2.039 0 3.895 0.769 5.307 2.026l3.771-3.771c-2.381-2.219-5.567-3.588-9.079-3.588-7.363 0-13.333 5.97-13.333 13.333s5.97 13.333 13.333 13.333c7.363 0 13.333-5.97 13.333-13.333 0-0.894-0.092-1.767-0.259-2.611z"></path>
<path fill="#fff" style="fill: var(--color3, #fff)" opacity="0.3" d="M29.074 13.389h-1.074v-0.055h-12v5.333h7.535c-1.099 3.105-4.053 5.333-7.535 5.333-4.418 0-8-3.582-8-8s3.582-8 8-8c2.039 0 3.895 0.769 5.307 2.026l3.771-3.771c-2.381-2.219-5.567-3.588-9.079-3.588-7.363 0-13.333 5.97-13.333 13.333s5.97 13.333 13.333 13.333c7.363 0 13.333-5.97 13.333-13.333 0-0.894-0.092-1.767-0.259-2.611z"></path>
<path fill="#ff3d00" style="fill: var(--color4, #ff3d00)" d="M4.204 9.794l4.381 3.213c1.185-2.935 4.056-5.007 7.415-5.007 2.039 0 3.895 0.769 5.307 2.026l3.771-3.771c-2.381-2.219-5.567-3.588-9.079-3.588-5.121 0-9.563 2.891-11.796 7.127z"></path>
<path fill="#000" style="fill: var(--color2, #000)" opacity="0.3" d="M4.204 9.794l4.381 3.213c1.185-2.935 4.056-5.007 7.415-5.007 2.039 0 3.895 0.769 5.307 2.026l3.771-3.771c-2.381-2.219-5.567-3.588-9.079-3.588-5.121 0-9.563 2.891-11.796 7.127z"></path>
<path fill="#fff" style="fill: var(--color3, #fff)" opacity="0.3" d="M4.204 9.794l4.381 3.213c1.185-2.935 4.056-5.007 7.415-5.007 2.039 0 3.895 0.769 5.307 2.026l3.771-3.771c-2.381-2.219-5.567-3.588-9.079-3.588-5.121 0-9.563 2.891-11.796 7.127z"></path>
<path fill="#4caf50" style="fill: var(--color5, #4caf50)" d="M16 29.333c3.444 0 6.573-1.318 8.939-3.461l-4.127-3.492c-1.384 1.052-3.074 1.621-4.813 1.62-3.468 0-6.413-2.211-7.522-5.297l-4.348 3.35c2.207 4.318 6.688 7.281 11.87 7.281z"></path>
<path fill="#000" style="fill: var(--color2, #000)" opacity="0.3" d="M16 29.333c3.444 0 6.573-1.318 8.939-3.461l-4.127-3.492c-1.384 1.052-3.074 1.621-4.813 1.62-3.468 0-6.413-2.211-7.522-5.297l-4.348 3.35c2.207 4.318 6.688 7.281 11.87 7.281z"></path>
<path fill="#fff" style="fill: var(--color3, #fff)" opacity="0.3" d="M16 29.333c3.444 0 6.573-1.318 8.939-3.461l-4.127-3.492c-1.384 1.052-3.074 1.621-4.813 1.62-3.468 0-6.413-2.211-7.522-5.297l-4.348 3.35c2.207 4.318 6.688 7.281 11.87 7.281z"></path>
<path fill="#1976d2" style="fill: var(--color6, #1976d2)" d="M29.074 13.389h-1.074v-0.055h-12v5.333h7.535c-0.526 1.478-1.473 2.769-2.725 3.714l0.002-0.001 4.127 3.492c-0.292 0.265 4.394-3.205 4.394-9.871 0-0.894-0.092-1.767-0.259-2.611z"></path>
<path fill="#000" style="fill: var(--color2, #000)" opacity="0.3" d="M29.074 13.389h-1.074v-0.055h-12v5.333h7.535c-0.526 1.478-1.473 2.769-2.725 3.714l0.002-0.001 4.127 3.492c-0.292 0.265 4.394-3.205 4.394-9.871 0-0.894-0.092-1.767-0.259-2.611z"></path>
<path fill="#fff" style="fill: var(--color3, #fff)" opacity="0.3" d="M29.074 13.389h-1.074v-0.055h-12v5.333h7.535c-0.526 1.478-1.473 2.769-2.725 3.714l0.002-0.001 4.127 3.492c-0.292 0.265 4.394-3.205 4.394-9.871 0-0.894-0.092-1.767-0.259-2.611z"></path>
</symbol>


<symbol id="linkedin" viewBox="0 0 32 32">
<path fill="#fff" style="fill: var(--color3, #fff)" d="M24.5 0h-17c-4.142 0-7.5 3.358-7.5 7.5v17c0 4.142 3.358 7.5 7.5 7.5h17c4.142 0 7.5-3.358 7.5-7.5v-17c0-4.142-3.358-7.5-7.5-7.5z"></path>
<path fill="#0a66c2" style="fill: var(--color7, #0a66c2)" d="M24.5 0h-17c-4.142 0-7.5 3.358-7.5 7.5v17c0 4.142 3.358 7.5 7.5 7.5h17c4.142 0 7.5-3.358 7.5-7.5v-17c0-4.142-3.358-7.5-7.5-7.5z"></path>
<path fill="#000" style="fill: var(--color2, #000)" opacity="0.3" d="M24.5 0h-17c-4.142 0-7.5 3.358-7.5 7.5v17c0 4.142 3.358 7.5 7.5 7.5h17c4.142 0 7.5-3.358 7.5-7.5v-17c0-4.142-3.358-7.5-7.5-7.5z"></path>
<path fill="#fff" style="fill: var(--color3, #fff)" opacity="0.3" d="M24.5 0h-17c-4.142 0-7.5 3.358-7.5 7.5v17c0 4.142 3.358 7.5 7.5 7.5h17c4.142 0 7.5-3.358 7.5-7.5v-17c0-4.142-3.358-7.5-7.5-7.5z"></path>
<path fill="#fff" style="fill: var(--color3, #fff)" d="M23.089 27.211h3.659c0.133 0 0.26-0.053 0.354-0.146s0.146-0.221 0.146-0.353l0.002-7.73c0-4.040-0.871-7.146-5.592-7.146-1.795-0.067-3.488 0.858-4.401 2.404-0.004 0.008-0.011 0.013-0.019 0.017s-0.017 0.004-0.025 0.002c-0.008-0.002-0.016-0.007-0.021-0.014s-0.008-0.015-0.008-0.024v-1.51c0-0.133-0.053-0.26-0.146-0.354s-0.221-0.146-0.354-0.146h-3.472c-0.133 0-0.26 0.053-0.354 0.146s-0.146 0.221-0.146 0.354v14.003c0 0.133 0.053 0.26 0.146 0.354s0.221 0.146 0.354 0.146h3.659c0.133 0 0.26-0.053 0.354-0.146s0.146-0.221 0.146-0.354v-6.922c0-1.957 0.371-3.852 2.798-3.852 2.392 0 2.423 2.239 2.423 3.979v6.796c0 0.133 0.053 0.26 0.146 0.354s0.221 0.146 0.354 0.146zM4.75 7.454c0 1.483 1.221 2.703 2.704 2.703s2.703-1.221 2.703-2.704c-0-1.483-1.22-2.703-2.703-2.703s-2.704 1.22-2.704 2.704zM5.62 27.211h3.663c0.133 0 0.26-0.053 0.354-0.146s0.146-0.221 0.146-0.354v-14.003c0-0.133-0.053-0.26-0.146-0.354s-0.221-0.146-0.354-0.146h-3.663c-0.133 0-0.26 0.053-0.354 0.146s-0.146 0.221-0.146 0.354v14.003c0 0.133 0.053 0.26 0.146 0.354s0.221 0.146 0.354 0.146z"></path>
</symbol>

<symbol id="linkedinWhite" viewBox="0 0 51 50">
<path d="M40.0833 6.25C41.1884 6.25 42.2482 6.68899 43.0296 7.47039C43.811 8.25179 44.25 9.3116 44.25 10.4167V39.5833C44.25 40.6884 43.811 41.7482 43.0296 42.5296C42.2482 43.311 41.1884 43.75 40.0833 43.75H10.9167C9.8116 43.75 8.75179 43.311 7.97039 42.5296C7.18899 41.7482 6.75 40.6884 6.75 39.5833V10.4167C6.75 9.3116 7.18899 8.25179 7.97039 7.47039C8.75179 6.68899 9.8116 6.25 10.9167 6.25H40.0833ZM39.0417 38.5417V27.5C39.0417 25.6987 38.3261 23.9713 37.0524 22.6976C35.7787 21.4239 34.0513 20.7083 32.25 20.7083C30.4792 20.7083 28.4167 21.7917 27.4167 23.4167V21.1042H21.6042V38.5417H27.4167V28.2708C27.4167 26.6667 28.7083 25.3542 30.3125 25.3542C31.086 25.3542 31.8279 25.6615 32.3749 26.2084C32.9219 26.7554 33.2292 27.4973 33.2292 28.2708V38.5417H39.0417ZM14.8333 17.8333C15.7616 17.8333 16.6518 17.4646 17.3082 16.8082C17.9646 16.1518 18.3333 15.2616 18.3333 14.3333C18.3333 12.3958 16.7708 10.8125 14.8333 10.8125C13.8996 10.8125 13.004 11.1834 12.3437 11.8437C11.6834 12.504 11.3125 13.3996 11.3125 14.3333C11.3125 16.2708 12.8958 17.8333 14.8333 17.8333ZM17.7292 38.5417V21.1042H11.9583V38.5417H17.7292Z" />
</symbol>

<symbol id="404" viewBox="0 0 37 32">
<path fill="#e7e8e5" style="fill: var(--color1, #e7e8e5)" d="M4.586 22.953l-0.013-0.541c-0.004-0.178-0.010-0.355-0.012-0.531l0.024 0.023c-0.443 0.004-0.886 0.013-1.329 0.014l-1.329 0.005 0.044-0.042-0.005 1.072-0.040-0.038c0.219 0.002 0.438 0.001 0.658 0.005l0.661 0.009 1.339 0.024zM4.586 22.953l-1.319 0.024-0.668 0.009c-0.223 0.004-0.448 0.003-0.671 0.005l-0.039 0-0-0.038-0.005-1.072-0-0.043 1.374 0.006c0.443 0 0.886 0.010 1.329 0.014l0.024 0-0 0.023c-0.002 0.181-0.008 0.362-0.012 0.541l-0.013 0.531z"></path>
<path fill="#e7e8e5" style="fill: var(--color1, #e7e8e5)" d="M3.103 24.304l-0.013-0.541c-0.004-0.178-0.010-0.355-0.012-0.531l0.024 0.023c-0.443 0.004-0.886 0.013-1.329 0.014l-1.329 0.005 0.044-0.043-0.005 1.072-0.040-0.038c0.219 0.001 0.438 0.001 0.658 0.005l0.661 0.010 1.339 0.023zM3.103 24.304l-1.319 0.024-0.668 0.010c-0.223 0.004-0.447 0.003-0.671 0.005l-0.039 0-0-0.038-0.005-1.072-0-0.043 0.045 0 1.329 0.005c0.443 0 0.886 0.009 1.329 0.014l0.025 0-0 0.023c-0.002 0.182-0.008 0.362-0.012 0.541l-0.013 0.531z"></path>
<path fill="#e7e8e5" style="fill: var(--color1, #e7e8e5)" d="M3.103 1.114l-0.013-0.541c-0.004-0.178-0.010-0.355-0.012-0.531l0.024 0.023c-0.443 0.004-0.886 0.013-1.329 0.014l-1.329 0.005 0.044-0.042-0.005 1.072-0.040-0.038c0.219 0.002 0.438 0.001 0.658 0.005l0.661 0.010 1.339 0.024zM3.103 1.114l-1.319 0.024-0.668 0.009c-0.223 0.004-0.447 0.003-0.671 0.005l-0.039 0-0-0.038-0.005-1.072-0-0.043 1.374 0.005c0.443 0 0.886 0.009 1.329 0.014l0.025 0-0 0.023c-0.002 0.181-0.008 0.362-0.012 0.541l-0.013 0.531z"></path>
<path fill="#e7e8e5" style="fill: var(--color1, #e7e8e5)" d="M36.713 1.114l-0.013-0.541c-0.004-0.178-0.010-0.355-0.012-0.531l0.024 0.023c-0.443 0.004-0.886 0.013-1.329 0.014l-1.329 0.005 0.044-0.042-0.005 1.072-0.040-0.038c0.219 0.002 0.438 0.001 0.658 0.005l0.661 0.010 1.34 0.024zM36.713 1.114l-1.319 0.024-0.668 0.009c-0.223 0.004-0.448 0.003-0.671 0.005l-0.040 0-0-0.038-0.005-1.072-0-0.043 1.374 0.005c0.443 0 0.886 0.009 1.329 0.014l0.025 0-0 0.023c-0.002 0.181-0.008 0.362-0.012 0.541l-0.013 0.531z"></path>
<path fill="#e7e8e5" style="fill: var(--color1, #e7e8e5)" d="M35.23 2.466l-0.013-0.541c-0.004-0.178-0.010-0.355-0.012-0.531l0.024 0.023c-0.443 0.004-0.886 0.014-1.329 0.014l-1.329 0.005 0.044-0.042-0.005 1.072-0.040-0.038c0.219 0.002 0.438 0.001 0.658 0.005l0.661 0.010 1.339 0.024zM35.23 2.466l-1.319 0.024-0.668 0.010c-0.223 0.004-0.448 0.003-0.671 0.005l-0.039 0-0-0.038-0.005-1.072-0-0.043 1.374 0.006c0.443 0 0.886 0.010 1.329 0.014l0.025 0-0 0.023c-0.002 0.181-0.008 0.362-0.012 0.541l-0.013 0.531z"></path>
<path fill="#e7e8e5" style="fill: var(--color1, #e7e8e5)" d="M28.017 12.48l-0.013-0.541c-0.004-0.178-0.010-0.355-0.012-0.531l0.024 0.023c-0.443 0.004-0.886 0.014-1.329 0.014l-1.329 0.005 0.044-0.042-0.005 1.072-0.040-0.038c0.219 0.001 0.438 0.001 0.658 0.005l0.661 0.009 1.339 0.024zM28.017 12.48l-1.319 0.024-0.668 0.009c-0.223 0.004-0.448 0.003-0.671 0.005l-0.039 0-0-0.038-0.005-1.072-0-0.043 1.374 0.006c0.443 0 0.886 0.009 1.329 0.014l0.025 0-0 0.023c-0.002 0.182-0.008 0.362-0.012 0.541l-0.013 0.531z"></path>
<path fill="#e7e8e5" style="fill: var(--color1, #e7e8e5)" d="M26.534 13.832l-0.013-0.541c-0.004-0.178-0.010-0.355-0.012-0.531l0.024 0.023c-0.443 0.004-0.886 0.014-1.329 0.014l-1.329 0.005 0.044-0.042-0.005 1.072-0.039-0.038c0.219 0.001 0.438 0.001 0.658 0.005l0.661 0.009 1.34 0.024zM26.534 13.832l-1.319 0.024-0.668 0.009c-0.223 0.004-0.448 0.003-0.671 0.005l-0.040 0-0-0.038-0.005-1.072-0-0.043 1.374 0.006c0.443 0 0.886 0.009 1.329 0.014l0.025 0-0 0.023c-0.002 0.181-0.008 0.362-0.012 0.541l-0.012 0.531z"></path>
<path fill="#e7e8e5" style="fill: var(--color1, #e7e8e5)" d="M25.057 12.48l-0.012-0.541c-0.004-0.178-0.010-0.355-0.012-0.531l0.024 0.023c-0.443 0.004-0.886 0.014-1.329 0.014l-1.329 0.005 0.044-0.042-0.005 1.072-0.040-0.038c0.219 0.001 0.438 0.001 0.658 0.005l0.661 0.009 1.339 0.024zM25.057 12.48l-1.319 0.024-0.668 0.009c-0.223 0.004-0.448 0.003-0.671 0.005l-0.040 0-0-0.038-0.005-1.072-0-0.043 1.374 0.006c0.443 0 0.886 0.009 1.329 0.014l0.025 0-0 0.023c-0.002 0.182-0.008 0.362-0.012 0.541l-0.013 0.531z"></path>
<path fill="#e7e8e5" style="fill: var(--color1, #e7e8e5)" d="M36.713 24.304l-0.013-0.541c-0.004-0.178-0.010-0.355-0.012-0.531l0.024 0.023c-0.443 0.004-0.886 0.013-1.329 0.014l-1.329 0.005 0.044-0.043-0.005 1.072-0.040-0.038c0.219 0.001 0.438 0.001 0.658 0.005l0.661 0.010 1.34 0.023zM36.713 24.304l-1.319 0.024-0.668 0.010c-0.223 0.004-0.448 0.003-0.671 0.005l-0.040 0-0-0.038-0.005-1.072-0-0.043 0.045 0 1.329 0.005c0.443 0 0.886 0.009 1.329 0.014l0.025 0-0 0.023c-0.002 0.182-0.008 0.362-0.012 0.541l-0.013 0.531z"></path>
<path fill="#e7e8e5" style="fill: var(--color1, #e7e8e5)" d="M12.747 8.622l-0.013-0.541c-0.004-0.178-0.010-0.355-0.012-0.531l0.024 0.023c-0.443 0.004-0.886 0.013-1.329 0.014l-1.329 0.005 0.044-0.042-0.005 1.072-0.040-0.038c0.219 0.001 0.438 0.001 0.658 0.005l0.661 0.009 1.339 0.024zM12.747 8.622l-1.319 0.024-0.668 0.009c-0.223 0.004-0.448 0.003-0.671 0.005l-0.039 0-0-0.038-0.005-1.072-0-0.043 1.374 0.006c0.443 0 0.886 0.010 1.329 0.014l0.025 0-0 0.023c-0.002 0.181-0.008 0.362-0.012 0.541l-0.013 0.531z"></path>
<path fill="#e7e8e5" style="fill: var(--color1, #e7e8e5)" d="M0.483 26.216h12.66l0.407-7.664h-13.475l0.407 7.664z"></path>
<path fill="#d4d6d3" style="fill: var(--color2, #d4d6d3)" d="M1.155 21.971h10.973l0.167-2.482h-11.283l0.143 2.482zM12.211 22.056h-11.14l-0.153-2.651h11.472l-0.179 2.651z"></path>
<path fill="#d4d6d3" style="fill: var(--color2, #d4d6d3)" d="M1.476 25.032h10.501l0.145-2.223h-10.762l0.116 2.223zM12.060 25.117h-10.669l-0.125-2.392h10.95l-0.157 2.392z"></path>
<path fill="#d4d6d3" style="fill: var(--color2, #d4d6d3)" d="M5.642 20.929h2.199l0.063-0.463h-2.324l0.063 0.463zM7.919 21.014h-2.355l-0.086-0.632h2.526l-0.086 0.632z"></path>
<path fill="#d4d6d3" style="fill: var(--color2, #d4d6d3)" d="M5.642 24.152h2.199l0.063-0.463h-2.324l0.062 0.463zM7.919 24.237h-2.355l-0.086-0.632h2.526l-0.086 0.632z"></path>
<path fill="#e7e8e5" style="fill: var(--color1, #e7e8e5)" d="M2.239 26.216l-0.123 0.835-0.247 1.678h-0.483v-2.513h0.854z"></path>
<path fill="#d4d6d3" style="fill: var(--color2, #d4d6d3)" d="M2.239 26.216l-0.123 0.835h-0.731v-0.835h0.854z"></path>
<path fill="#e7e8e5" style="fill: var(--color1, #e7e8e5)" d="M11.388 26.216l0.123 0.835 0.247 1.678h0.483v-2.513h-0.854z"></path>
<path fill="#d4d6d3" style="fill: var(--color2, #d4d6d3)" d="M11.388 26.216l0.123 0.835h0.731v-0.835h-0.854z"></path>
<path fill="#175517" style="fill: var(--color3, #175517)" d="M5.555 10.875h2.616v-5.709l-2.616 5.709zM8.172 15.886v-3.227h-5.025v-1.914l4.381-7.996h3.343v8.125h1.723v1.784h-1.723v3.227h-2.699z"></path>
<path fill="#228b22" style="fill: var(--color4, #228b22)" d="M4.466 10.875h2.616v-5.709l-2.616 5.709zM7.082 15.886v-3.227h-5.025v-1.914l4.381-7.996h3.343v8.125h1.723v1.784h-1.723v3.227h-2.699z"></path>
<path fill="#e7e8e5" style="fill: var(--color1, #e7e8e5)" d="M31.067 16.33h5.262v-6.954h-5.262v6.954z"></path>
<path fill="#fff" style="fill: var(--color5, #fff)" d="M31.755 15.674h3.886v-5.642h-3.886v5.642z"></path>
<path fill="#fff" style="fill: var(--color5, #fff)" d="M31.755 15.674h3.886v-5.642h-3.886v5.642z"></path>
<path fill="#fbfbfa" style="fill: var(--color6, #fbfbfa)" d="M35.142 15.674h-1.221l-2.167-2.067v-1.165l3.387 3.232z"></path>
<path fill="#fbfbfa" style="fill: var(--color6, #fbfbfa)" d="M35.641 12.669l-2.764-2.637h0.403l2.362 2.254v0.383z"></path>
<path fill="#fbfbfa" style="fill: var(--color6, #fbfbfa)" d="M35.641 11.052l-1.069-1.020h0.134l0.935 0.892v0.128z"></path>
<path fill="#fbfbfa" style="fill: var(--color6, #fbfbfa)" d="M33.137 15.674h-0.135l-1.247-1.19v-0.128l1.382 1.318z"></path>
<path fill="#fbfbfa" style="fill: var(--color6, #fbfbfa)" d="M35.641 13.473l-3.606-3.441h0.134l3.472 3.313v0.128z"></path>
<path fill="#d4d6d3" style="fill: var(--color2, #d4d6d3)" d="M32.035 15.674h-0.28v-5.641h0.28v5.641z"></path>
<path fill="#d4d6d3" style="fill: var(--color2, #d4d6d3)" d="M36.609 16.33h-0.28v-6.954h0.28v6.954z"></path>
<path fill="#e7e8e5" style="fill: var(--color1, #e7e8e5)" d="M27.875 7.108h5.262v-6.954h-5.262v6.954z"></path>
<path fill="#fff" style="fill: var(--color5, #fff)" d="M28.563 6.452h3.886v-5.642h-3.886v5.642z"></path>
<path fill="#e7e8e5" style="fill: var(--color1, #e7e8e5)" d="M32.449 4.886l-0-0v-1.165l0 0v1.165z"></path>
<path fill="#fbfbfa" style="fill: var(--color6, #fbfbfa)" d="M32.449 4.886l-3.886-3.707v-0.368h0.835l3.051 2.911v1.165z"></path>
<path fill="#e7e8e5" style="fill: var(--color1, #e7e8e5)" d="M30.648 6.452v0z"></path>
<path fill="#fbfbfa" style="fill: var(--color6, #fbfbfa)" d="M30.648 6.452h-1.222l-0.863-0.824v-1.166l2.085 1.989z"></path>
<path fill="#e7e8e5" style="fill: var(--color1, #e7e8e5)" d="M32.449 1.537l-0-0v-0.383l0 0v0.383z"></path>
<path fill="#fbfbfa" style="fill: var(--color6, #fbfbfa)" d="M32.449 1.537l-0.762-0.727h0.401l0.361 0.344v0.383z"></path>
<path fill="#e7e8e5" style="fill: var(--color1, #e7e8e5)" d="M32.029 6.452h-0.134l-0-0h0.135l0 0z"></path>
<path fill="#fbfbfa" style="fill: var(--color6, #fbfbfa)" d="M32.029 6.452h-0.135l-3.332-3.179v-0.128l3.466 3.307z"></path>
<path fill="#e7e8e5" style="fill: var(--color1, #e7e8e5)" d="M32.449 3.334l-0-0v-0.128l0 0v0.128z"></path>
<path fill="#fbfbfa" style="fill: var(--color6, #fbfbfa)" d="M32.449 3.334l-2.645-2.524h0.134l2.511 2.395v0.128z"></path>
<path fill="#d4d6d3" style="fill: var(--color2, #d4d6d3)" d="M28.843 6.452h-0.28v-5.641h0.28v5.641z"></path>
<path fill="#d4d6d3" style="fill: var(--color2, #d4d6d3)" d="M33.416 7.108h-0.28v-6.954h0.28v6.954z"></path>
<path fill="#17282f" style="fill: var(--color7, #17282f)" d="M0.205 28.728l4.593-0.021 13.78-0.022 18.373 0.042-4.593 0.021-13.78 0.021-18.373-0.042z"></path>
<path fill="#fabb1e" style="fill: var(--color8, #fabb1e)" d="M36.054 21.412c-1.047 1.353-2.139 2.923-2.405 4.62-0.003 0.026 0.040 0.034 0.046 0.009 0.122-0.465 0.275-0.917 0.463-1.358 0.688-0.181 1.364-0.329 1.725-0.981 0.369-0.67 0.322-1.544 0.252-2.274-0.005-0.039-0.060-0.041-0.082-0.015z"></path>
<path fill="#17282f" style="fill: var(--color7, #17282f)" d="M34.169 24.669c0.47-1.007 1.074-2.018 1.842-2.846l0.009 0.008c-0.503 0.59-0.884 1.232-1.257 1.886 0.347-0.336 0.727-0.637 1.055-0.993l0.011 0.010c-0.326 0.373-0.682 0.779-1.107 1.055-0.114 0.201-0.229 0.402-0.345 0.603 0.029-0.015 0.058-0.029 0.087-0.043l0.005 0.007c-0.032 0.016-0.064 0.032-0.098 0.046-0.055 0.095-0.11 0.19-0.167 0.285-0.013 0.021-0.043 0.003-0.033-0.019z"></path>
<path fill="#17282f" style="fill: var(--color7, #17282f)" d="M34.519 24.317c0.281-0.153 0.551-0.318 0.804-0.512l0.010 0.009c-0.248 0.2-0.512 0.38-0.802 0.521-0.013 0.006-0.024-0.012-0.012-0.019z"></path>
<path fill="#fabb1e" style="fill: var(--color8, #fabb1e)" d="M33.528 25.779c0.002 0.021 0.039 0.020 0.038-0.002 0.005-0.559 0-1.12 0.009-1.681 0.15-0.289 0.472-0.449 0.696-0.68 0.161-0.167 0.3-0.355 0.418-0.555 0.277-0.473 0.427-1.004 0.485-1.541 0.062-0.598-0.176-2.57-0.44-2.501-0.137 0.035-0.58 1.012-0.698 1.335-0.193 0.531-0.328 1.082-0.417 1.637-0.214 1.315-0.196 2.665-0.092 3.988z"></path>
<path fill="#17282f" style="fill: var(--color7, #17282f)" d="M33.524 23.369l0.003-0.002c0.032-0.707 0.199-1.421 0.355-2.107 0.168-0.739 0.365-1.434 0.763-2.093 0.007-0.012 0.026-0.002 0.020 0.011-0.271 0.51-0.465 1.051-0.614 1.607 0.027-0.040 0.059-0.078 0.087-0.115 0.011-0.015 0.037-0.001 0.026 0.014-0.039 0.056-0.074 0.121-0.124 0.168l-0.005 0.002c-0.137 0.528-0.236 1.068-0.32 1.607l0.019-0.021 0.009 0.006c-0.010 0.018-0.022 0.036-0.034 0.053-0.042 0.273-0.082 0.546-0.121 0.817 0.51-0.416 0.946-0.907 1.192-1.511l0.005 0.001c-0.241 0.627-0.62 1.184-1.205 1.564-0.011 0.073-0.021 0.146-0.032 0.218-0.002 0.015-0.027 0.011-0.027-0.003 0-0.064 0.004-0.129 0.006-0.193-0.007-0.006-0.011-0.016-0.002-0.024z"></path>
<path fill="#17282f" style="fill: var(--color7, #17282f)" d="M33.764 22.345c0.39-0.555 0.754-1.095 1.040-1.708l0.013 0.005c-0.24 0.61-0.577 1.228-1.033 1.718-0.009 0.010-0.027-0.003-0.020-0.014z"></path>
<path fill="#17282f" style="fill: var(--color7, #17282f)" d="M34.282 20.499c0.162-0.273 0.332-0.538 0.484-0.816 0.004-0.008 0.016-0.001 0.012 0.007-0.128 0.284-0.28 0.573-0.471 0.823-0.011 0.014-0.034 0.002-0.025-0.014z"></path>
<path fill="#fabb1e" style="fill: var(--color8, #fabb1e)" d="M33.132 24.163c-0.010 0.37-0.052 0.74-0.137 1.101 0.006 0.040 0.012 0.079 0.018 0.12 0.122-0.401 0.186-0.812 0.206-1.227 0.007-0.011 0.009-0.024 0.002-0.038l-0-0.001c0.022-0.554-0.032-1.114-0.129-1.662-0.181-1.027-0.578-2.012-1.328-2.782-0.024-0.024-0.071-0.011-0.083 0.016-0.303 0.735-0.197 1.611 0.061 2.344 0.14 0.395 0.341 0.774 0.595 1.113 0.258 0.345 0.586 0.638 0.795 1.015z"></path>
<path fill="#17282f" style="fill: var(--color7, #17282f)" d="M31.853 20.018c0.711 1.101 1.206 2.407 1.267 3.708 0.001 0.023-0.040 0.029-0.043 0.006-0.017-0.117-0.036-0.233-0.055-0.348l-0.001-0c-0.294-0.269-0.596-0.553-0.807-0.889l0.010-0.008c0.256 0.279 0.495 0.565 0.784 0.814-0.051-0.288-0.111-0.571-0.183-0.85-0.019-0.021-0.038-0.042-0.056-0.063-0.012-0.014 0.008-0.034 0.021-0.020l0.017 0.018c-0.101-0.383-0.224-0.758-0.372-1.127-0.181-0.206-0.383-0.384-0.515-0.632l0.009-0.005c0.106 0.142 0.209 0.285 0.329 0.416 0.048 0.052 0.1 0.102 0.15 0.153-0.162-0.393-0.354-0.779-0.582-1.158-0.010-0.017 0.017-0.032 0.027-0.015z"></path>
<path fill="#17282f" style="fill: var(--color7, #17282f)" d="M31.996 21.377c0.23 0.295 0.492 0.577 0.706 0.882 0.006 0.009-0.007 0.018-0.015 0.011-0.275-0.246-0.507-0.582-0.706-0.884-0.006-0.009 0.009-0.017 0.016-0.009z"></path>
<path fill="#17282f" style="fill: var(--color7, #17282f)" d="M32.734 22.327l0.010 0.009-0.011 0.010-0.010-0.009 0.011-0.010z"></path>
<path fill="#fabb1e" style="fill: var(--color8, #fabb1e)" d="M30.738 22.135c0.057 0.567 0.37 1.244 0.751 1.68 0.169 0.193 0.374 0.341 0.609 0.453 0.264 0.125 0.54 0.268 0.813 0.37 0.127 0.311 0.225 0.636 0.288 0.975 0.009-0.029 0.018-0.058 0.026-0.086-0.175-1.435-1.148-2.661-2.393-3.448-0.045-0.028-0.098 0.008-0.093 0.056z"></path>
<path fill="#17282f" style="fill: var(--color7, #17282f)" d="M31.168 22.559c-0.009-0.007 0.003-0.022 0.013-0.016 0.66 0.466 1.254 1.146 1.586 1.865 0.009 0.020-0.019 0.037-0.031 0.017-0.058-0.097-0.117-0.191-0.177-0.283h-0.001c-0.284-0.051-0.553-0.242-0.764-0.423l0.008-0.008c0.11 0.093 0.228 0.177 0.36 0.241 0.116 0.056 0.24 0.091 0.361 0.136-0.105-0.159-0.215-0.312-0.33-0.461-0.306-0.099-0.597-0.278-0.854-0.458-0.008-0.006-0.001-0.018 0.008-0.013 0.262 0.15 0.52 0.283 0.794 0.405-0.172-0.218-0.359-0.424-0.56-0.623-0.097-0.049-0.194-0.097-0.288-0.149-0.008-0.004-0.003-0.017 0.006-0.014 0.075 0.024 0.15 0.061 0.221 0.104-0.112-0.108-0.228-0.215-0.352-0.32z"></path>
<path fill="#17282f" style="fill: var(--color7, #17282f)" d="M31.195 23.055c0.017 0.010 0.033 0.020 0.048 0.032l-0.006 0.007c-0.018-0.008-0.033-0.017-0.050-0.027-0.009-0.005-0.001-0.018 0.008-0.013z"></path>
<path fill="#228b22" style="fill: var(--color4, #228b22)" d="M35.166 28.72h-3.411l0.275-2.963 0.060-0.654h2.739l0.060 0.654 0.275 2.963z"></path>
<path fill="#17282f" style="fill: var(--color7, #17282f)" d="M34.891 25.757h-2.86l0.060-0.654h2.739l0.060 0.654z"></path>
<path fill="#228b22" style="fill: var(--color4, #228b22)" d="M34.994 25.293h-3.065v-0.647h3.065v0.647z"></path>
<path fill="#e7e8e5" style="fill: var(--color1, #e7e8e5)" d="M25.506 30.903c0 0.606-3.101 1.097-6.927 1.097s-6.927-0.491-6.927-1.097c0-0.606 3.101-1.097 6.927-1.097s6.927 0.491 6.927 1.097z"></path>
<path fill="#175517" style="fill: var(--color3, #175517)" d="M15.621 2.195v0.308h-1.315v-1.807h1.291v0.308h-0.923v0.435h0.798v0.285h-0.798v0.471h0.947z"></path>
<path fill="#175517" style="fill: var(--color3, #175517)" d="M16.277 1.589h0.462c0.034 0 0.065-0.008 0.095-0.023s0.055-0.036 0.076-0.062c0.021-0.026 0.038-0.057 0.051-0.093s0.019-0.074 0.019-0.115c0-0.042-0.007-0.081-0.021-0.117s-0.033-0.067-0.057-0.093c-0.024-0.026-0.052-0.047-0.083-0.061s-0.063-0.022-0.095-0.022h-0.446v0.585zM15.909 2.503v-1.807h0.838c0.087 0 0.168 0.017 0.242 0.052s0.137 0.081 0.191 0.137c0.053 0.057 0.095 0.121 0.125 0.193s0.045 0.145 0.045 0.218c0 0.117-0.031 0.224-0.092 0.319s-0.144 0.165-0.249 0.208l0.432 0.679h-0.413l-0.387-0.606h-0.363v0.606h-0.368z"></path>
<path fill="#175517" style="fill: var(--color3, #175517)" d="M18.051 1.589h0.461c0.034 0 0.065-0.008 0.095-0.023s0.055-0.036 0.076-0.062c0.021-0.026 0.038-0.057 0.051-0.093s0.019-0.074 0.019-0.115c0-0.042-0.007-0.081-0.021-0.117s-0.033-0.067-0.057-0.093c-0.024-0.026-0.052-0.047-0.083-0.061s-0.062-0.022-0.095-0.022h-0.445v0.585zM17.683 2.503v-1.807h0.838c0.087 0 0.167 0.017 0.241 0.052s0.137 0.081 0.191 0.137c0.053 0.057 0.095 0.121 0.125 0.193s0.045 0.145 0.045 0.218c0 0.117-0.031 0.224-0.092 0.319s-0.144 0.165-0.249 0.208l0.432 0.679h-0.414l-0.387-0.606h-0.363v0.606h-0.368z"></path>
<path fill="#175517" style="fill: var(--color3, #175517)" d="M19.715 1.599c0 0.078 0.012 0.154 0.037 0.226s0.061 0.137 0.108 0.193 0.105 0.101 0.173 0.135c0.068 0.034 0.146 0.051 0.233 0.051 0.089 0 0.168-0.017 0.236-0.052s0.126-0.081 0.173-0.139c0.047-0.058 0.083-0.123 0.107-0.195s0.036-0.145 0.036-0.22c0-0.078-0.013-0.154-0.039-0.226s-0.062-0.137-0.109-0.194c-0.047-0.056-0.105-0.101-0.173-0.134s-0.145-0.050-0.231-0.050c-0.089 0-0.168 0.017-0.237 0.052s-0.127 0.081-0.173 0.137c-0.046 0.057-0.081 0.121-0.105 0.193s-0.036 0.145-0.036 0.22zM20.265 2.515c-0.139 0-0.265-0.026-0.377-0.078s-0.21-0.12-0.291-0.206c-0.081-0.086-0.144-0.184-0.188-0.294s-0.067-0.223-0.067-0.338c0-0.12 0.024-0.236 0.071-0.346s0.112-0.208 0.195-0.293c0.083-0.085 0.181-0.152 0.295-0.202s0.237-0.075 0.371-0.075c0.137 0 0.262 0.027 0.375 0.080s0.209 0.123 0.289 0.21c0.080 0.087 0.142 0.185 0.187 0.295s0.067 0.222 0.067 0.336c0 0.12-0.023 0.235-0.069 0.345s-0.11 0.206-0.192 0.29c-0.082 0.084-0.18 0.151-0.293 0.201s-0.237 0.075-0.371 0.075z"></path>
<path fill="#175517" style="fill: var(--color3, #175517)" d="M21.842 1.589h0.461c0.034 0 0.065-0.008 0.095-0.023s0.055-0.036 0.076-0.062c0.021-0.026 0.038-0.057 0.051-0.093s0.019-0.074 0.019-0.115c0-0.042-0.007-0.081-0.021-0.117s-0.033-0.067-0.057-0.093c-0.024-0.026-0.052-0.047-0.083-0.061s-0.063-0.022-0.095-0.022h-0.445v0.585zM21.473 2.503v-1.807h0.837c0.087 0 0.168 0.017 0.242 0.052s0.137 0.081 0.191 0.137c0.053 0.057 0.095 0.121 0.125 0.193s0.045 0.145 0.045 0.218c0 0.117-0.031 0.224-0.092 0.319s-0.144 0.165-0.249 0.208l0.432 0.679h-0.414l-0.387-0.606h-0.363v0.606h-0.368z"></path>
<path fill="#175517" style="fill: var(--color3, #175517)" d="M27.193 10.875h2.616v-5.709l-2.616 5.709zM29.81 15.886v-3.227h-5.025v-1.914l4.381-7.996h3.343v8.125h1.723v1.784h-1.723v3.227h-2.699z"></path>
<path fill="#228b22" style="fill: var(--color4, #228b22)" d="M26.104 10.875h2.616v-5.709l-2.616 5.709zM28.72 15.886v-3.227h-5.025v-1.914l4.381-7.996h3.343v8.125h1.723v1.784h-1.723v3.227h-2.699z"></path>
<path fill="#bebfbd" style="fill: var(--color9, #bebfbd)" d="M8.519 3.899c0 0.228-0.193 0.412-0.432 0.412s-0.432-0.185-0.432-0.412c0-0.228 0.193-0.412 0.432-0.412s0.432 0.185 0.432 0.412z"></path>
<path fill="#d4d6d3" style="fill: var(--color2, #d4d6d3)" d="M8.473 3.818c0 0.228-0.193 0.412-0.432 0.412s-0.432-0.185-0.432-0.412c0-0.228 0.193-0.412 0.432-0.412s0.432 0.184 0.432 0.412z"></path>
<path fill="#bebfbd" style="fill: var(--color9, #bebfbd)" d="M30.122 3.899c0 0.228-0.193 0.412-0.432 0.412s-0.432-0.185-0.432-0.412c0-0.228 0.194-0.412 0.432-0.412s0.432 0.185 0.432 0.412z"></path>
<path fill="#d4d6d3" style="fill: var(--color2, #d4d6d3)" d="M30.076 3.818c0 0.228-0.193 0.412-0.432 0.412s-0.432-0.185-0.432-0.412c0-0.228 0.193-0.412 0.432-0.412s0.432 0.184 0.432 0.412z"></path>
<path fill="#17282f" style="fill: var(--color7, #17282f)" d="M15.587 14.333l0.007 0.009c-0.126 0.113-0.248 0.232-0.362 0.356-0.104 0.113-0.2 0.232-0.214 0.388-0.001 0.009-0.015 0.009-0.015-0-0.003-0.151 0.041-0.31 0.134-0.433 0.113-0.149 0.286-0.233 0.451-0.32z"></path>
<path fill="#17282f" style="fill: var(--color7, #17282f)" d="M21.722 26.519c0.086 0.157 0.149 0.319 0.21 0.482 0.059 0.164 0.114 0.327 0.157 0.499-0.108-0.144-0.18-0.307-0.241-0.471-0.058-0.165-0.107-0.334-0.126-0.51z"></path>
<path fill="#17282f" style="fill: var(--color7, #17282f)" d="M27.049 23.428c0.089 0.107 0.151 0.228 0.201 0.353 0.024 0.063 0.045 0.127 0.058 0.194s0.023 0.135 0.010 0.204c-0.025-0.064-0.051-0.124-0.077-0.185s-0.050-0.122-0.075-0.183c-0.047-0.124-0.093-0.248-0.118-0.382z"></path>
<path fill="#175517" style="fill: var(--color3, #175517)" d="M12.454 20.284l0.791 3.6c-1.619 0.744-4.188-1.34-4.383-2.807 0.957 0.432 2.87 0.169 3.591-0.793z"></path>
<path fill="#228b22" style="fill: var(--color4, #228b22)" d="M19.675 13.203c4.241 0.611 3.753 4.214 4.162 7.466 0.385 3.063-0.075 6.505-3.701 6.959-1.948 0.143-3.808 0.255-5.633-0.774-1.971-1.112-1.997-3.779-2.19-5.686-0.142-1.408-0.139-2.994 0.091-4.466 0.098-0.625 0.308-1.236 0.68-1.747 1.089-1.496 2.486-1.799 4.117-1.78 0.528 0.006 1.447-0.196 2.474 0.029z"></path>
<path fill="#fabc38" style="fill: var(--color10, #fabc38)" d="M18.041 19.764l1.977 1.944-1.862 2.567-1.975-2.111 1.86-2.4z"></path>
<path fill="#fff" style="fill: var(--color5, #fff)" d="M19.604 16.628c2.044-0.873 3.561 0.978 3.251 2.983-0.245 1.581-2.211 2.723-3.678 2.043-1.993-0.924-1.434-4.23 0.427-5.025z"></path>
<path fill="#060808" style="fill: var(--color11, #060808)" d="M18.537 20.608c-0.008 0.669 0.527 1.217 1.194 1.225s1.214-0.528 1.222-1.197c0.008-0.669-0.527-1.217-1.194-1.225s-1.214 0.528-1.222 1.197z"></path>
<path fill="#fff" style="fill: var(--color5, #fff)" d="M16.249 16.589c-2.024-0.92-3.583 0.895-3.319 2.907 0.208 1.586 2.147 2.773 3.63 2.127 2.014-0.877 1.531-4.196-0.311-5.034z"></path>
<path fill="#060808" style="fill: var(--color11, #060808)" d="M15.035 20.355c-0.008 0.669 0.527 1.217 1.194 1.225s1.214-0.528 1.221-1.197c0.008-0.669-0.527-1.217-1.194-1.225s-1.214 0.528-1.222 1.197z"></path>
<path fill="#fff" style="fill: var(--color5, #fff)" d="M14.498 19.973c-0.004 0.346 0.273 0.63 0.617 0.633s0.628-0.273 0.632-0.619c0.004-0.346-0.272-0.63-0.617-0.633s-0.628 0.273-0.632 0.619z"></path>
<path fill="#060808" style="fill: var(--color11, #060808)" d="M22.503 15.724c0 0-0.906-0.929-2.575-0.614 0 0 1.856-2.066 2.575 0.614z"></path>
<path fill="#060808" style="fill: var(--color11, #060808)" d="M15.146 15.413c0 0-1.288-0.141-2.379 1.165 0 0 0.125-2.778 2.379-1.165z"></path>
<path fill="#fabc38" style="fill: var(--color10, #fabc38)" d="M22.548 27.714c0.935 0.556-0.386 1.496-0.524 0.569 0.243 0.793-0.589 0.751-0.866 0.201-0.241-0.48-0.293-1.623 0.045-1.952 0.42-0.408 1.425-0.146 1.962 0.18 0.935 0.568 0.399 1.606-0.617 1.001z"></path>
<path fill="#fabc38" style="fill: var(--color10, #fabc38)" d="M15.478 28.332c-0.044 1.089-1.496 0.371-0.749-0.192-0.58 0.591-0.94-0.162-0.588-0.668 0.307-0.441 1.285-1.030 1.734-0.889 0.558 0.176 0.806 1.187 0.775 1.816-0.054 1.094-1.22 1.116-1.172-0.068z"></path>
<path fill="#074906" style="fill: var(--color12, #074906)" d="M21.977 22.65l-0.135 0.193-0.591-0.423 0.135-0.193 0.591 0.423z"></path>
<path fill="#074906" style="fill: var(--color12, #074906); stroke: var(--color12, #074906)" stroke="#074906" stroke-linejoin="miter" stroke-linecap="butt" stroke-miterlimit="4" stroke-width="0.6095" d="M20.501 19.965c0.728 0.516 0.91 1.527 0.407 2.259s-1.503 0.907-2.231 0.391c-0.728-0.516-0.91-1.527-0.407-2.259s1.503-0.907 2.231-0.391zM17.997 20.162c-0.608 0.883-0.388 2.104 0.491 2.727s2.085 0.412 2.693-0.471c0.608-0.883 0.388-2.105-0.491-2.727s-2.085-0.411-2.693 0.472z"></path>
<path fill="#074906" style="fill: var(--color12, #074906); stroke: var(--color6, #fbfbfa)" stroke="#fbfbfa" stroke-linejoin="miter" stroke-linecap="butt" stroke-miterlimit="4" stroke-width="0.4571" d="M23.27 23.716v0c0.037-0.053 0.014-0.101-0.004-0.114 0 0 0 0 0 0l-1.195-0.856c-0.010-0.007-0.024-0.011-0.042-0.007s-0.041 0.016-0.057 0.040v0c-0.017 0.024-0.022 0.051-0.019 0.072s0.012 0.034 0.023 0.042v0l1.195 0.856c0.010 0.007 0.023 0.011 0.042 0.007s0.041-0.016 0.057-0.040z"></path>
<path fill="#175517" style="fill: var(--color3, #175517)" d="M22.3 23.436c0 0 0.297 1.124 1.55 0.43 0.297-1.835 0.094-2.78-0.165-4.696-0.021 1.848-1.386 4.266-1.386 4.266z"></path>
<path fill="#763428" style="fill: var(--color13, #763428)" d="M19.56 7.79c-0.899-0.009-1.514 0.767-2.248 0.889-0.758 0.127-1.831-0.76-2.651-0.317-0.787 0.425-2.541 6.081-2.687 6.556-0.642 0.086-1.998 0.313-2.336 0.719-0.446 0.537 0.446 1.208 2.232 1.879s5.446 1.074 8.214 0.94c2.768-0.134 5.714-1.387 5.758-2.193s-1.027-1.253-1.607-1.298c-0.225-0.017-0.643-0.001-1.072 0.026-0.103-0.403-0.957-3.716-1.432-4.667-0.505-1.013-1.136-2.468-2.083-2.531-0.030-0.002-0.059-0.003-0.088-0.003z"></path>
<path fill="#57261d" style="fill: var(--color14, #57261d)" d="M21.221 9.32c-0.593 0.509-1.297 1.227-1.54 1.933-0.446 1.298-0.67 1.924-1.919 2.506s-6.339 0.492-4.553 1.521c2.232 1.387 8.705 1.163 9.508 0.94s0.58 0.358-0.089 1.029c-0.67 0.671-1.696 1.029-4.776 0.985-2.037-0.030-5.101-0.684-6.948-1.125 0.286 0.136 0.602 0.272 0.966 0.409 1.786 0.671 5.446 1.074 8.214 0.94s5.714-1.387 5.758-2.193c0.044-0.805-1.027-1.253-1.607-1.298-0.225-0.017-0.643-0.001-1.072 0.026-0.103-0.403-0.957-3.716-1.432-4.667-0.155-0.311-0.325-0.663-0.509-1.005z"></path>
<path fill="#af4d3b" style="fill: var(--color15, #af4d3b)" d="M15.575 8.613c0 0-0.759-0.224-0.714 0.134s1.25 1.119 2.187 1.074c0.937-0.045 1.518-0.94 1.518-0.94s-0.893 0.626-1.518 0.492c-0.625-0.134-1.027-0.716-1.473-0.761z"></path>
<path fill="#228b22" style="fill: var(--color4, #228b22)" d="M22.761 13.488c-1.165 0.412-2.826 0.802-4.809 0.963-2.238 0.182-4.438-0.311-5.606-0.697-0.241 0.737-0.4 1.255-0.4 1.255 6.813 2.238 11.237 0.063 11.237 0.063s-0.179-0.704-0.422-1.584z"></path>
<path fill="#175517" style="fill: var(--color3, #175517)" d="M13.556 14.224c0 0 1.173 0.245 2.063 0.311-0.095 0.253-0.169 1.011-0.169 1.011s-1.736-0.19-2.21-0.38c0.158-0.506 0.316-0.942 0.316-0.942z"></path>
<path fill="#af4d3b" style="fill: var(--color15, #af4d3b)" d="M16.11 16.354c0 0-3.928-0.761-4.33-0.403s1.339 1.119 3.035 1.298c1.696 0.179 2.187-0.492 1.295-0.895z"></path>
</symbol>

<symbol id="505" viewBox="0 0 37 32">
<defs>
      <linearGradient id="grad1" x1="0%" y1="0%" x2="0%" y2="100%">
      <stop offset="0%" style="stop-color:rgb(0,0,139);stop-opacity:1" />
      <stop offset="50%" style="stop-color:rgb(135,206,250);stop-opacity:1" />
      <stop offset="100%" style="stop-color:rgb(173,216,230);stop-opacity:1" />
    </linearGradient>
  </defs>
<path fill="#e7e8e5" style="fill: var(--color1, #e7e8e5)" d="M4.521 22.958l-0.011-0.537c0-0.183-0.011-0.354-0.011-0.526l0.021 0.021c-0.44 0-0.891 0.011-1.332 0.011h-1.332l0.043-0.043v1.074l-0.043-0.043c0.215 0 0.44 0 0.655 0l0.666 0.011 1.342 0.032zM4.521 22.958l-1.987 0.032c-0.225 0-0.451 0-0.676 0h-0.043v-1.16h0.043l1.332 0.011c0.44 0 0.891 0.011 1.332 0.011h0.021v0.021c0 0.183-0.011 0.365-0.011 0.537l-0.011 0.548z"></path>
<path fill="#e7e8e5" style="fill: var(--color1, #e7e8e5)" d="M3.028 24.301l-0.011-0.537c0-0.183-0.011-0.354-0.011-0.526l0.021 0.021c-0.44 0-0.891 0.011-1.332 0.011h-1.332l0.043-0.043v1.074l-0.043-0.032c0.215 0 0.44 0 0.655 0l2.008 0.032zM3.028 24.301l-1.987 0.032c-0.226 0-0.451 0-0.676 0h-0.043v-1.16h1.375c0.44 0 0.891 0.011 1.332 0.011h0.021v0.021c0 0.183-0.011 0.365-0.011 0.537l-0.011 0.558z"></path>
<path fill="#e7e8e5" style="fill: var(--color1, #e7e8e5)" d="M3.028 1.117l-0.011-0.537c0-0.183-0.011-0.365-0.011-0.537l0.021 0.021c-0.44 0-0.891 0.011-1.332 0.011h-1.332l0.043-0.043v1.074l-0.043-0.032c0.215 0 0.44 0 0.655 0l0.666 0.011 1.342 0.032zM3.028 1.117l-1.987 0.032c-0.226 0-0.451 0-0.676 0h-0.043v-1.149h1.375c0.44 0 0.891 0.011 1.332 0.011h0.021v0.021c0 0.183-0.011 0.365-0.011 0.537l-0.011 0.548z"></path>
<path fill="#e7e8e5" style="fill: var(--color1, #e7e8e5)" d="M36.703 1.117l-0.011-0.537c0-0.183-0.011-0.354-0.011-0.526l0.021 0.021c-0.44 0-0.891 0.011-1.332 0.011h-1.332l0.043-0.043v1.074l-0.043-0.043c0.215 0 0.44 0 0.655 0l0.666 0.011 1.342 0.032zM36.703 1.117l-1.987 0.032c-0.225 0-0.451 0-0.676 0h-0.043v-1.16h1.374c0.44 0 0.891 0.011 1.332 0.011h0.021v0.021c0 0.183-0.011 0.365-0.011 0.537l-0.011 0.558z"></path>
<path fill="#e7e8e5" style="fill: var(--color1, #e7e8e5)" d="M35.211 2.47l-0.011-0.537c0-0.183-0.011-0.354-0.011-0.526l0.021 0.021c-0.44 0-0.891 0.011-1.332 0.011h-1.332l0.043-0.043v1.074l-0.043-0.043c0.215 0 0.44 0 0.655 0l0.666 0.011 1.342 0.032zM35.211 2.47l-1.987 0.032c-0.225 0-0.451 0-0.676 0h-0.043v-1.16h1.374c0.44 0 0.891 0.011 1.332 0.011h0.021v0.021c0 0.183-0.011 0.365-0.011 0.537l-0.011 0.558z"></path>
<path fill="#e7e8e5" style="fill: var(--color1, #e7e8e5)" d="M27.984 12.478l-0.011-0.537c0-0.183-0.011-0.354-0.011-0.526l0.021 0.021c-0.44 0-0.891 0.011-1.332 0.011h-1.332l0.043-0.043v1.074l-0.043-0.043c0.215 0 0.44 0 0.655 0l0.666 0.011 1.342 0.032zM27.984 12.478l-1.987 0.032c-0.226 0-0.451 0-0.677 0h-0.043v-1.16h1.375c0.44 0 0.891 0.011 1.332 0.011h0.021v0.021c0 0.183-0.011 0.365-0.011 0.537l-0.011 0.558z"></path>
<path fill="#e7e8e5" style="fill: var(--color1, #e7e8e5)" d="M26.502 13.831l-0.011-0.537c0-0.183-0.011-0.354-0.011-0.526l0.021 0.021c-0.44 0-0.891 0.011-1.332 0.011l-1.332 0.011 0.043-0.043v1.074l-0.043-0.043c0.215 0 0.44 0 0.655 0l2.008 0.032zM26.502 13.831l-1.987 0.032c-0.226 0-0.451 0-0.677 0h-0.043v-1.16h0.043l1.332 0.011c0.44 0 0.891 0.011 1.332 0.011h0.021v0.021c0 0.183-0.011 0.365-0.011 0.537l-0.011 0.548z"></path>
<path fill="#e7e8e5" style="fill: var(--color1, #e7e8e5)" d="M25.020 12.478l-0.011-0.537c0-0.183-0.011-0.354-0.011-0.526l0.021 0.021c-0.44 0-0.891 0.011-1.332 0.011h-1.332l0.043-0.043v1.074l-0.043-0.043c0.215 0 0.44 0 0.655 0l0.666 0.011 1.342 0.032zM25.020 12.478l-1.987 0.032c-0.226 0-0.451 0-0.677 0h-0.043v-1.16h1.375c0.44 0 0.891 0.011 1.332 0.011h0.021v0.021c0 0.183-0.011 0.365-0.011 0.537l-0.011 0.558z"></path>
<path fill="#e7e8e5" style="fill: var(--color1, #e7e8e5)" d="M36.703 24.301l-0.011-0.537c0-0.183-0.011-0.354-0.011-0.526l0.021 0.021c-0.44 0-0.891 0.011-1.332 0.011h-1.332l0.043-0.043v1.074l-0.043-0.032c0.215 0 0.44 0 0.655 0l2.008 0.032zM36.703 24.301l-1.987 0.032c-0.225 0-0.451 0-0.676 0h-0.043v-1.16h1.374c0.44 0 0.891 0.011 1.332 0.011h0.021v0.021c0 0.183-0.011 0.365-0.011 0.537l-0.011 0.558z"></path>
<path fill="#e7e8e5" style="fill: var(--color1, #e7e8e5)" d="M12.693 8.623l-0.011-0.537c0-0.183-0.011-0.354-0.011-0.526l0.021 0.021c-0.44 0-0.891 0.011-1.332 0.011h-1.332l0.043-0.043v1.074l-0.043-0.043c0.215 0 0.44 0 0.655 0l0.666 0.011 1.342 0.032zM12.693 8.623l-1.987 0.032c-0.226 0-0.451 0-0.677 0h-0.043v-1.16h1.374c0.44 0 0.891 0.011 1.332 0.011h0.021v0.021c0 0.183-0.011 0.365-0.011 0.537l-0.011 0.558z"></path>
<path fill="#e7e8e5" style="fill: var(--color1, #e7e8e5)" d="M0.408 26.212h12.682l0.408-7.667h-13.498l0.408 7.667z"></path>
<path fill="#d4d6d3" style="fill: var(--color2, #d4d6d3)" d="M1.085 21.97h10.996l0.172-2.481h-11.318l0.15 2.481zM12.156 22.056h-11.157l-0.15-2.652h11.49l-0.183 2.652z"></path>
<path fill="#d4d6d3" style="fill: var(--color2, #d4d6d3)" d="M1.407 25.031h10.524l0.15-2.223h-10.792l0.118 2.223zM12.005 25.117h-10.685l-0.129-2.395h10.964l-0.15 2.395z"></path>
<path fill="#d4d6d3" style="fill: var(--color2, #d4d6d3)" d="M5.573 20.929h2.201l0.064-0.462h-2.33l0.064 0.462zM7.86 21.015h-2.362l-0.086-0.634h2.534l-0.086 0.634z"></path>
<path fill="#175517" style="fill: var(--color3, #175517)" d="M11.103 12.016c0 0.655-0.129 1.256-0.376 1.793s-0.601 0.999-1.042 1.385c-0.451 0.387-0.977 0.687-1.589 0.891-0.612 0.215-1.278 0.322-1.997 0.322-0.999 0-1.89-0.204-2.674-0.601-0.29-0.15-0.558-0.322-0.805-0.515l-0.011-0.011c-0.043-0.032-0.086-0.064-0.118-0.097l-0.011-0.011c-0.032-0.032-0.064-0.054-0.097-0.086l-0.107-0.107h-0.011l-0.043-0.043c-0.011-0.011-0.032-0.032-0.043-0.043-0.021-0.011-0.032-0.032-0.043-0.054-0.011-0.011-0.021-0.032-0.043-0.043-0.204-0.215-0.376-0.44-0.526-0.698l1.482-1.46v0.043l0.011 0.011v0.741l0.011 0.011v0.075l0.011 0.011v0.054l0.011 0.011v0.011c0.043 0.064 0.097 0.118 0.14 0.183 0.183 0.14 0.387 0.268 0.601 0.387 0.537 0.279 1.095 0.419 1.675 0.419 0.687 0 1.256-0.193 1.697-0.591s0.666-0.924 0.666-1.579c0-0.472-0.118-0.881-0.344-1.213-0.354-0.226-0.773-0.333-1.256-0.333-0.419 0-0.816 0.086-1.181 0.279-0.365 0.183-0.655 0.43-0.87 0.752h-2.255v-0.011h-0.011v-0.011h-0.011v-0.011h-0.011v-0.945h-0.011v-0.011h-0.011v-0.011h-0.011v-0.011h-0.011v-0.011h-0.011v-0.011h-0.011v-0.011h-0.011v-0.011h-0.011v-0.011h-0.011v-0.011h-0.011v-0.011h-0.011v-0.011h-0.011v-0.011h-0.011v-0.011h-0.011v0.054h0.043v-0.011h-0.011v-0.011h-0.011v-0.011h-0.011v-0.011h-0.011v-0.011h-0.011v-0.011h-0.011v-0.011h-0.011v-0.011h-0.011v-0.011h-0.011v-0.011h-0.011v-0.011h-0.011v-0.011h-0.011v-0.011h-0.011v-0.011h-0.011v-0.011h-0.011v0.054h0.043v-0.011h-0.011v-0.011h-0.011v-0.011h-0.011v-0.011h-0.011v-0.011h-0.011v-0.011h-0.011v-0.011h-0.011v-0.011h-0.011v-0.011h-0.011v-0.011h-0.011v-0.011h-0.011v-0.011h-0.011v-0.011h-0.011v-0.011h-0.011v-0.011h0.054v0.054h-0.021v-0.011h-0.011v-0.011h-0.011v-0.011h-0.011v-0.011h-0.011v-0.011h-0.011v-0.011h-0.011v-0.011h-0.011v-0.011h-0.011v-0.011h-0.011v-0.011h-0.011v-0.011h-0.011v-0.011h-0.011v-0.011h-0.011v-0.011h0.054v-0.011h-0.011v0.054h-0.021v-0.011h-0.011v-0.011h-0.011v-0.011h-0.011v-0.011h-0.011v-0.011h-0.011v-0.011h-0.011v-0.011h-0.011v-0.011h-0.011v-0.011h-0.011v-0.011h-0.011v-0.011h-0.011v-0.011h-0.011v-0.011h0.054v-0.011h-0.011v-0.011h-0.011v0.054h-0.021v-0.011h-0.011c0-0.032 0.021-0.172 0.075-0.408s0.118-0.537 0.193-0.913c0.075-0.376 0.161-0.784 0.247-1.246s0.183-0.923 0.29-1.396c0.225-1.117 0.483-2.373 0.773-3.769h6.722v0.011h0.021v0.011h0.011v0.011h0.011v0.011h0.011v0.011h0.011v0.011h0.011v0.011h0.011v0.011h0.011v0.011h0.011v0.011h0.011v0.011h0.011v0.011h0.011v0.011h0.011v0.011h0.011v0.011h0.011v0.011h-0.043v-0.054h0.011v0.011h0.011v0.011h0.011v0.011h0.011v0.011h0.011v0.011h0.011v0.011h0.011v0.011h0.011v0.011h0.011v0.011h0.011v0.011h0.011v0.011h0.011v0.011h0.011v0.011h0.011v0.011h-0.043v0.011-0.054h0.021v0.011h0.011v0.011h0.011v0.011h0.011v0.011h0.011v0.011h0.011v0.011h0.011v0.011h0.011v0.011h0.011v0.011h0.011v0.011h0.011v0.011h0.011v0.011h0.011v0.011h-0.043v0.021h0.011v-0.054h0.021v0.011h0.011v0.011h0.011v0.011h0.011v0.011h0.011v0.011h0.011v0.011h0.011v0.011h0.011v0.011h0.011v0.011h0.011v0.011h0.011v0.011h0.011v0.011h-0.043v0.021h0.011v0.011h0.011v-0.054h0.021v0.011h0.011v0.011h0.011v0.011h0.011v0.011h0.011v0.011h0.011v0.011h0.011v0.011h0.011v0.011h0.011v0.011h0.011v0.011h0.011v0.011h-0.043v0.021h0.011v0.011h0.011v0.011h0.011v-0.054h0.021v0.011h0.011v0.011h0.011v0.011h0.011v2.223h-4.886l-0.365 1.922c0.279-0.075 0.612-0.118 0.999-0.118 0.644 0 1.235 0.097 1.783 0.301 0.44 0.161 0.827 0.376 1.17 0.644 0.021 0.011 0.032 0.032 0.054 0.043 0.011 0.011 0.032 0.021 0.043 0.043 0.021 0.021 0.043 0.032 0.064 0.054l0.011 0.011c0.011 0.011 0.032 0.021 0.043 0.043 0.011 0.011 0.021 0.021 0.021 0.021l0.15 0.15h0.011l0.032 0.032h0.011l0.032 0.032h0.011l0.075 0.075c0.021 0.021 0.043 0.043 0.054 0.064l0.011 0.011c0.021 0.021 0.032 0.043 0.054 0.064l0.011 0.011c0.268 0.301 0.483 0.644 0.655 1.031 0.655 0.924 0.773 1.482 0.773 2.105z"></path>
<path fill="#d4d6d3" style="fill: var(--color2, #d4d6d3)" d="M5.573 24.15h2.201l0.064-0.462h-2.33l0.064 0.462zM7.86 24.236h-2.362l-0.086-0.634h2.534l-0.086 0.634z"></path>
<path fill="#33535f" style="fill: var(--color4, #33535f)" d="M6.024 7.152c0.644 0 1.235 0.097 1.783 0.301s1.020 0.483 1.417 0.848c0.397 0.365 0.709 0.805 0.934 1.321s0.333 1.074 0.333 1.697c0 0.655-0.129 1.256-0.376 1.793s-0.601 0.999-1.042 1.385c-0.451 0.387-0.977 0.687-1.589 0.891-0.612 0.215-1.278 0.322-1.997 0.322-0.999 0-1.89-0.204-2.674-0.601s-1.385-0.956-1.793-1.643l1.482-1.46c0.354 0.472 0.805 0.848 1.342 1.138 0.537 0.279 1.095 0.419 1.675 0.419 0.687 0 1.256-0.193 1.697-0.591s0.666-0.924 0.666-1.579c0-0.634-0.204-1.149-0.623-1.536s-0.945-0.58-1.579-0.58c-0.419 0-0.816 0.097-1.181 0.279s-0.655 0.43-0.87 0.752h-2.266c0-0.032 0.021-0.172 0.075-0.408s0.118-0.537 0.193-0.913c0.075-0.376 0.161-0.784 0.247-1.246s0.183-0.923 0.29-1.396c0.225-1.117 0.483-2.373 0.773-3.769h6.722v2.234h-4.864l-0.558 2.91c0.15-0.161 0.376-0.29 0.676-0.387 0.311-0.129 0.676-0.183 1.106-0.183z"></path>
<path fill="#e7e8e5" style="fill: var(--color1, #e7e8e5)" d="M2.169 26.212l-0.118 0.838-0.247 1.675h-0.483v-2.513h0.848z"></path>
<path fill="#d4d6d3" style="fill: var(--color2, #d4d6d3)" d="M2.169 26.212l-0.118 0.838h-0.73v-0.838h0.848z"></path>
<path fill="#e7e8e5" style="fill: var(--color1, #e7e8e5)" d="M11.329 26.212l0.118 0.838 0.247 1.675h0.483v-2.513h-0.848z"></path>
<path fill="#d4d6d3" style="fill: var(--color2, #d4d6d3)" d="M11.329 26.212l0.118 0.838h0.73v-0.838h-0.848z"></path>
<path fill="#228b22" style="fill: var(--color5, #228b22)" d="M6.024 7.281c0.644 0 1.235 0.097 1.783 0.301s1.020 0.483 1.417 0.848c0.397 0.365 0.709 0.805 0.934 1.321s0.333 1.074 0.333 1.697c0 0.655-0.129 1.256-0.376 1.793s-0.601 0.999-1.042 1.385c-0.451 0.387-0.977 0.687-1.589 0.891-0.612 0.215-1.278 0.322-1.997 0.322-0.999 0-1.89-0.204-2.674-0.601s-1.385-0.956-1.793-1.643l1.482-1.46c0.354 0.472 0.805 0.848 1.342 1.138 0.537 0.279 1.095 0.419 1.675 0.419 0.687 0 1.256-0.193 1.697-0.591s0.666-0.924 0.666-1.579c0-0.634-0.204-1.149-0.623-1.536s-0.945-0.58-1.579-0.58c-0.419 0-0.816 0.097-1.181 0.279s-0.655 0.43-0.87 0.752h-2.266c0-0.032 0.021-0.172 0.075-0.408s0.118-0.537 0.193-0.913c0.075-0.376 0.161-0.784 0.247-1.246s0.183-0.923 0.29-1.396c0.225-1.117 0.483-2.373 0.773-3.769h6.722v2.234h-4.864l-0.558 2.91c0.15-0.161 0.376-0.29 0.676-0.387 0.311-0.14 0.676-0.183 1.106-0.183z"></path>
<path fill="#e7e8e5" style="fill: var(--color1, #e7e8e5)" d="M31.044 16.333h5.272v-6.958h-5.272v6.958z"></path>
<path fill="#fff" style="fill: var(--color6, #fff)" d="M31.732 15.678h3.898v-5.648h-3.898v5.648z"></path>
<path fill="#fbfbfa" style="fill: var(--color7, #fbfbfa)" d="M35.125 15.678h-1.224l-2.169-2.062v-1.16l3.393 3.221z"></path>
<path fill="#fbfbfa" style="fill: var(--color7, #fbfbfa)" d="M35.63 12.671l-2.77-2.642h0.408l2.362 2.255v0.387z"></path>
<path fill="#fbfbfa" style="fill: var(--color7, #fbfbfa)" d="M35.63 11.050l-1.074-1.020h0.129l0.934 0.891v0.129z"></path>
<path fill="#fbfbfa" style="fill: var(--color7, #fbfbfa)" d="M33.117 15.678h-0.14l-1.246-1.192v-0.129l1.385 1.321z"></path>
<path fill="#fbfbfa" style="fill: var(--color7, #fbfbfa)" d="M35.63 13.476l-3.608-3.436h0.14l3.479 3.318v0.118z"></path>
<path fill="#d4d6d3" style="fill: var(--color2, #d4d6d3)" d="M32.011 15.678h-0.279v-5.648h0.279v5.648z"></path>
<path fill="#d4d6d3" style="fill: var(--color2, #d4d6d3)" d="M36.596 16.333h-0.279v-6.958h0.279v6.958z"></path>
<path fill="#e7e8e5" style="fill: var(--color1, #e7e8e5)" d="M27.844 7.109h5.272v-6.958h-5.272v6.958z"></path>
<path fill="#fff" style="fill: var(--color6, #fff)" d="M28.532 6.454h3.898v-5.648h-3.898v5.648z"></path>
<path fill="#e7e8e5" style="fill: var(--color1, #e7e8e5)" d="M32.43 4.886v0 0z"></path>
<path fill="#fbfbfa" style="fill: var(--color7, #fbfbfa)" d="M32.43 4.886l-3.898-3.705v-0.376h0.838l3.060 2.91v1.17z"></path>
<path fill="#e7e8e5" style="fill: var(--color1, #e7e8e5)" d="M30.625 6.454v0z"></path>
<path fill="#fbfbfa" style="fill: var(--color7, #fbfbfa)" d="M30.625 6.454h-1.224l-0.87-0.827v-1.16l2.094 1.987z"></path>
<path fill="#e7e8e5" style="fill: var(--color1, #e7e8e5)" d="M32.43 1.536v0 0z"></path>
<path fill="#fbfbfa" style="fill: var(--color7, #fbfbfa)" d="M32.43 1.536l-0.762-0.73h0.397l0.365 0.344v0.387z"></path>
<path fill="#e7e8e5" style="fill: var(--color1, #e7e8e5)" d="M32.011 6.454v0z"></path>
<path fill="#fbfbfa" style="fill: var(--color7, #fbfbfa)" d="M32.011 6.454h-0.14l-3.34-3.179v-0.129l3.479 3.307z"></path>
<path fill="#e7e8e5" style="fill: var(--color1, #e7e8e5)" d="M32.43 3.329v0 0z"></path>
<path fill="#fbfbfa" style="fill: var(--color7, #fbfbfa)" d="M32.43 3.329l-2.652-2.523h0.14l2.513 2.405v0.118z"></path>
<path fill="#d4d6d3" style="fill: var(--color2, #d4d6d3)" d="M28.811 6.454h-0.279v-5.648h0.279v5.648z"></path>
<path fill="#d4d6d3" style="fill: var(--color2, #d4d6d3)" d="M33.396 7.109h-0.279v-6.958h0.279v6.958z"></path>
<path fill="#17282f" style="fill: var(--color8, #17282f)" d="M0.129 28.725l4.596-0.021 13.799-0.021 18.405 0.043-4.607 0.021-13.799 0.021-18.395-0.043z"></path>
<path fill="#fabb1e" style="fill: var(--color9, #fabb1e)" d="M36.038 21.412c-1.052 1.353-2.148 2.921-2.405 4.617 0 0.021 0.043 0.032 0.043 0.011 0.118-0.462 0.279-0.913 0.462-1.364 0.687-0.183 1.364-0.333 1.729-0.977 0.365-0.666 0.322-1.546 0.247-2.276 0-0.032-0.054-0.032-0.075-0.011z"></path>
<path fill="#17282f" style="fill: var(--color8, #17282f)" d="M34.148 24.666c0.472-1.009 1.074-2.019 1.847-2.846l0.011 0.011c-0.505 0.591-0.881 1.235-1.256 1.89 0.344-0.333 0.73-0.634 1.052-0.988l0.011 0.011c-0.322 0.376-0.687 0.784-1.106 1.052-0.118 0.204-0.225 0.397-0.344 0.601 0.032-0.011 0.054-0.032 0.086-0.043v0.011c-0.032 0.011-0.064 0.032-0.097 0.043-0.054 0.097-0.107 0.193-0.172 0.29-0.011 0.011-0.043-0.011-0.032-0.032z"></path>
<path fill="#17282f" style="fill: var(--color8, #17282f)" d="M34.502 24.322c0.279-0.15 0.548-0.322 0.805-0.515l0.011 0.011c-0.247 0.204-0.515 0.376-0.805 0.526-0.011 0-0.021-0.021-0.011-0.021z"></path>
<path fill="#fabb1e" style="fill: var(--color9, #fabb1e)" d="M33.514 25.783c0 0.021 0.043 0.021 0.043 0 0.011-0.558 0-1.117 0.011-1.686 0.15-0.29 0.472-0.451 0.698-0.677 0.161-0.172 0.301-0.354 0.419-0.558 0.279-0.472 0.43-1.009 0.483-1.546 0.064-0.601-0.172-2.566-0.44-2.502-0.14 0.032-0.58 1.009-0.698 1.332-0.193 0.526-0.333 1.085-0.419 1.632-0.225 1.332-0.204 2.674-0.097 4.005z"></path>
<path fill="#17282f" style="fill: var(--color8, #17282f)" d="M33.503 23.366v0c0.032-0.709 0.204-1.428 0.354-2.105 0.172-0.741 0.365-1.439 0.762-2.094 0.011-0.011 0.021 0 0.021 0.011-0.268 0.505-0.462 1.052-0.612 1.611 0.021-0.043 0.064-0.075 0.086-0.118 0.011-0.011 0.032 0 0.021 0.011-0.043 0.054-0.075 0.118-0.129 0.172v0c-0.14 0.526-0.236 1.063-0.322 1.611l0.021-0.021 0.011 0.011c-0.011 0.021-0.021 0.032-0.032 0.054-0.043 0.268-0.086 0.548-0.118 0.816 0.515-0.419 0.945-0.902 1.192-1.514v0c-0.236 0.623-0.623 1.181-1.203 1.568-0.011 0.075-0.021 0.15-0.032 0.215 0 0.011-0.032 0.011-0.032 0 0-0.064 0-0.129 0.011-0.193 0-0.011-0.011-0.021 0-0.032z"></path>
<path fill="#17282f" style="fill: var(--color8, #17282f)" d="M33.75 22.346c0.387-0.558 0.752-1.095 1.042-1.707h0.011c-0.236 0.612-0.58 1.224-1.031 1.718-0.011 0.011-0.032 0-0.021-0.011z"></path>
<path fill="#17282f" style="fill: var(--color8, #17282f)" d="M34.266 20.499c0.161-0.268 0.333-0.537 0.483-0.816 0-0.011 0.011 0 0.011 0.011-0.129 0.279-0.279 0.569-0.472 0.827-0.011 0.011-0.032-0.011-0.021-0.021z"></path>
<path fill="#fabb1e" style="fill: var(--color9, #fabb1e)" d="M33.117 24.161c-0.011 0.365-0.054 0.741-0.14 1.106 0.011 0.043 0.011 0.075 0.021 0.118 0.118-0.397 0.183-0.816 0.204-1.224 0.011-0.011 0.011-0.021 0-0.043v0c0.021-0.558-0.032-1.117-0.129-1.664-0.183-1.031-0.58-2.008-1.332-2.781-0.021-0.021-0.075-0.011-0.086 0.021-0.301 0.73-0.193 1.611 0.064 2.341 0.14 0.397 0.344 0.773 0.601 1.117 0.247 0.344 0.58 0.634 0.795 1.009z"></path>
<path fill="#17282f" style="fill: var(--color8, #17282f)" d="M31.828 20.016c0.709 1.106 1.213 2.405 1.267 3.705 0 0.021-0.043 0.032-0.043 0.011-0.021-0.118-0.032-0.236-0.054-0.344v0c-0.29-0.268-0.601-0.548-0.805-0.891l0.011-0.011c0.258 0.279 0.494 0.569 0.784 0.816-0.054-0.29-0.107-0.569-0.183-0.848-0.021-0.021-0.032-0.043-0.054-0.064-0.011-0.011 0.011-0.032 0.021-0.021l0.021 0.021c-0.097-0.387-0.225-0.762-0.376-1.128-0.183-0.204-0.387-0.387-0.515-0.634h0.011c0.107 0.14 0.204 0.29 0.333 0.419 0.043 0.054 0.097 0.097 0.15 0.15-0.161-0.397-0.354-0.784-0.58-1.16-0.021-0.021 0-0.032 0.011-0.021z"></path>
<path fill="#17282f" style="fill: var(--color8, #17282f)" d="M31.979 21.38c0.226 0.29 0.494 0.58 0.709 0.881 0.011 0.011-0.011 0.021-0.011 0.011-0.279-0.247-0.505-0.58-0.709-0.881-0.011-0.011 0-0.021 0.011-0.011z"></path>
<path fill="#17282f" style="fill: var(--color8, #17282f)" d="M32.709 22.325v0 0z"></path>
<path fill="#fabb1e" style="fill: var(--color9, #fabb1e)" d="M30.711 22.132c0.054 0.569 0.365 1.246 0.752 1.675 0.172 0.193 0.376 0.344 0.612 0.451 0.268 0.129 0.537 0.268 0.816 0.365 0.129 0.311 0.225 0.634 0.29 0.977 0.011-0.032 0.021-0.054 0.021-0.086-0.172-1.439-1.149-2.663-2.395-3.447-0.043-0.021-0.097 0.021-0.097 0.064z"></path>
<path fill="#17282f" style="fill: var(--color8, #17282f)" d="M31.141 22.561c-0.011-0.011 0-0.021 0.011-0.011 0.666 0.462 1.256 1.149 1.589 1.868 0.011 0.021-0.021 0.032-0.032 0.021-0.054-0.097-0.118-0.193-0.172-0.279v0c-0.29-0.054-0.558-0.247-0.762-0.419l0.011-0.011c0.107 0.097 0.226 0.183 0.365 0.236 0.118 0.054 0.236 0.097 0.365 0.14-0.107-0.161-0.215-0.311-0.333-0.462-0.311-0.097-0.601-0.279-0.859-0.462-0.011-0.011 0-0.021 0.011-0.011 0.258 0.15 0.526 0.279 0.795 0.408-0.172-0.215-0.354-0.419-0.558-0.623-0.097-0.054-0.193-0.097-0.29-0.15-0.011 0 0-0.021 0.011-0.011 0.075 0.021 0.15 0.064 0.226 0.107-0.129-0.129-0.247-0.236-0.376-0.344z"></path>
<path fill="#17282f" style="fill: var(--color8, #17282f)" d="M31.173 23.055c0.021 0.011 0.032 0.021 0.043 0.032l-0.011 0.011c-0.021-0.011-0.032-0.021-0.054-0.032 0 0 0.011-0.021 0.021-0.011z"></path>
<path fill="#228b22" style="fill: var(--color5, #228b22)" d="M35.146 28.725h-3.415l0.279-2.964 0.064-0.655h2.749l0.064 0.655 0.258 2.964z"></path>
<path fill="#17282f" style="fill: var(--color8, #17282f)" d="M34.878 25.761h-2.867l0.064-0.655h2.749l0.054 0.655z"></path>
<path fill="#228b22" style="fill: var(--color5, #228b22)" d="M34.974 25.289h-3.071v-0.644h3.071v0.644z"></path>
<path fill="#e7e8e5" style="fill: var(--color1, #e7e8e5)" d="M25.471 30.905c0 0.601-3.103 1.095-6.937 1.095s-6.937-0.494-6.937-1.095 3.103-1.095 6.937-1.095c3.834 0 6.937 0.483 6.937 1.095z"></path>
<path fill="#175517" style="fill: var(--color3, #175517)" d="M15.57 2.191v0.311h-1.321v-1.804h1.289v0.311h-0.924v0.44h0.795v0.29h-0.795v0.472h0.956z"></path>
<path fill="#175517" style="fill: var(--color3, #175517)" d="M16.226 1.589h0.462c0.032 0 0.064-0.011 0.097-0.021s0.054-0.032 0.075-0.064c0.021-0.021 0.043-0.054 0.054-0.097 0.011-0.032 0.021-0.075 0.021-0.118s-0.011-0.086-0.021-0.118c-0.011-0.032-0.032-0.064-0.054-0.097-0.021-0.021-0.054-0.043-0.086-0.064-0.032-0.011-0.064-0.021-0.097-0.021h-0.451v0.601zM15.86 2.502v-1.804h0.838c0.086 0 0.172 0.021 0.247 0.054s0.14 0.086 0.193 0.14c0.054 0.054 0.097 0.118 0.129 0.193s0.043 0.14 0.043 0.215c0 0.118-0.032 0.226-0.097 0.322s-0.14 0.161-0.247 0.204l0.43 0.676h-0.419l-0.387-0.601h-0.365v0.601h-0.365z"></path>
<path fill="#175517" style="fill: var(--color3, #175517)" d="M18.008 1.589h0.462c0.032 0 0.064-0.011 0.097-0.021s0.054-0.032 0.075-0.064c0.021-0.021 0.043-0.054 0.054-0.097 0.011-0.032 0.021-0.075 0.021-0.118s-0.011-0.086-0.021-0.118c-0.011-0.032-0.032-0.064-0.054-0.097-0.021-0.021-0.054-0.043-0.086-0.064-0.032-0.011-0.064-0.021-0.097-0.021h-0.451v0.601zM17.632 2.502v-1.804h0.838c0.086 0 0.172 0.021 0.247 0.054s0.14 0.086 0.193 0.14c0.054 0.054 0.097 0.118 0.129 0.193s0.043 0.14 0.043 0.215c0 0.118-0.032 0.226-0.097 0.322s-0.14 0.161-0.247 0.204l0.43 0.676h-0.419l-0.387-0.601h-0.365v0.601h-0.365z"></path>
<path fill="#175517" style="fill: var(--color3, #175517)" d="M19.672 1.6c0 0.075 0.011 0.15 0.032 0.226s0.064 0.14 0.107 0.193c0.043 0.054 0.107 0.097 0.172 0.14 0.064 0.032 0.15 0.054 0.236 0.054s0.172-0.021 0.236-0.054c0.064-0.032 0.129-0.086 0.172-0.14s0.086-0.118 0.107-0.193c0.021-0.075 0.032-0.15 0.032-0.226s-0.011-0.15-0.043-0.226c-0.021-0.075-0.064-0.14-0.107-0.193s-0.107-0.097-0.172-0.129c-0.064-0.032-0.15-0.054-0.236-0.054s-0.172 0.021-0.236 0.054c-0.064 0.032-0.129 0.086-0.172 0.14s-0.086 0.118-0.107 0.193c-0.011 0.064-0.021 0.14-0.021 0.215zM20.22 2.513c-0.14 0-0.268-0.021-0.376-0.075-0.118-0.054-0.215-0.118-0.29-0.204-0.086-0.086-0.14-0.183-0.193-0.29-0.043-0.107-0.064-0.226-0.064-0.344s0.021-0.236 0.075-0.344c0.043-0.107 0.107-0.204 0.193-0.29s0.183-0.15 0.301-0.204c0.118-0.054 0.236-0.075 0.376-0.075s0.258 0.021 0.376 0.075c0.118 0.054 0.215 0.118 0.29 0.215 0.075 0.086 0.14 0.183 0.183 0.29s0.064 0.226 0.064 0.333c0 0.118-0.021 0.236-0.064 0.344s-0.107 0.204-0.193 0.29c-0.086 0.086-0.183 0.15-0.29 0.204-0.129 0.054-0.247 0.075-0.387 0.075z"></path>
<path fill="#175517" style="fill: var(--color3, #175517)" d="M21.799 1.589h0.462c0.032 0 0.064-0.011 0.097-0.021s0.054-0.032 0.075-0.064c0.021-0.021 0.043-0.054 0.054-0.097 0.011-0.032 0.021-0.075 0.021-0.118s-0.011-0.086-0.021-0.118c-0.011-0.032-0.032-0.064-0.054-0.097-0.021-0.021-0.054-0.043-0.086-0.064-0.032-0.011-0.064-0.021-0.097-0.021h-0.451v0.601zM21.434 2.502v-1.804h0.838c0.086 0 0.172 0.021 0.247 0.054s0.14 0.086 0.193 0.14c0.054 0.054 0.097 0.118 0.129 0.193s0.043 0.14 0.043 0.215c0 0.118-0.032 0.226-0.097 0.322s-0.14 0.161-0.247 0.204l0.43 0.676h-0.419l-0.387-0.601h-0.365v0.601h-0.365z"></path>
<path fill="#175517" style="fill: var(--color3, #175517)" d="M32.73 12.532c0 0.655-0.129 1.256-0.376 1.793s-0.601 0.999-1.042 1.385c-0.451 0.387-0.977 0.687-1.589 0.891-0.612 0.215-1.278 0.322-1.997 0.322-0.999 0-1.89-0.204-2.674-0.601-0.29-0.15-0.558-0.322-0.805-0.515l-0.011-0.011c-0.043-0.032-0.086-0.064-0.118-0.097l-0.011-0.011c-0.032-0.032-0.064-0.054-0.097-0.086l-0.107-0.107h-0.021l-0.011-0.011h-0.011l-0.032-0.032h-0.011c-0.011-0.011-0.032-0.032-0.043-0.043-0.021-0.011-0.032-0.032-0.043-0.054-0.011-0.011-0.021-0.032-0.043-0.043-0.204-0.215-0.376-0.44-0.526-0.698l1.482-1.46v0.011l0.011 0.011v0.021l0.021 0.021v0.054l0.032 0.032v0.043l0.021 0.021v0.021l0.011 0.011v0.011l0.011 0.011v0.011l0.043 0.043v0.021l0.064 0.064v0.021l0.043 0.043v0.011l0.011 0.011v0.011l0.011 0.011v0.011l0.032 0.032v0.011l0.011 0.011v0.011l0.043 0.043v0.032l0.054 0.054v0.011l0.011 0.011v0.011l0.064 0.064v0.021l0.043 0.043v0.021l0.021 0.021v0.021l0.021 0.021c0.043 0.064 0.097 0.118 0.14 0.183 0.183 0.14 0.387 0.268 0.601 0.387 0.537 0.279 1.095 0.419 1.675 0.419 0.687 0 1.256-0.193 1.697-0.591s0.666-0.924 0.666-1.579c0-0.472-0.118-0.881-0.344-1.213-0.354-0.226-0.773-0.333-1.256-0.333-0.419 0-0.816 0.086-1.181 0.279-0.365 0.183-0.655 0.43-0.87 0.752h-2.244v-0.011h-0.011v-0.011h-0.011v-0.011h-0.011v-0.011h-0.011v-0.011h-0.011v-0.011h-0.011v-0.011h-0.011v-0.011h-0.011v-0.011h-0.011v-0.011h-0.011v-0.011h-0.483v-0.021h-0.011v-0.011h-0.011v-0.011h-0.011v-0.881h-0.021v-0.011h-0.011v-0.011h-0.011v-0.011h-0.011v-0.011h-0.011v-0.011h-0.011v-0.011h-0.011v-0.011h-0.011v-0.011h-0.011v-0.011h-0.011v-0.011h0.043v-0.021h-0.011v-0.011h-0.011v-0.011h-0.011v-0.011h-0.011v0.054h-0.021v-0.011h-0.011v-0.011h-0.011v-0.011h-0.011v-0.011h-0.011v-0.011h-0.011v-0.011h-0.011v-0.011h-0.011v-0.011h-0.011v-0.011h0.043v-0.021h-0.011v-0.011h-0.011v-0.011h-0.011v-0.011h-0.011v-0.011h-0.011v0.054h-0.011v-0.011h-0.011v-0.011h-0.011v-0.011h-0.011v-0.011h-0.011v-0.011h-0.011v-0.011h-0.011v-0.011h-0.011v-0.011h-0.011v-0.011h-0.011v-0.011h0.054v-0.011h-0.011v-0.011h-0.011v-0.011h-0.011v-0.011h-0.011v-0.011h-0.011v-0.011h-0.011v0.064h-0.011v-0.011h-0.011v-0.011h-0.011v-0.011h-0.011v-0.011h-0.011v-0.011h-0.011v-0.011h-0.011v-0.011h-0.011v-0.011h-0.011v-0.011h0.054v-0.011h-0.011v-0.011h-0.011v-0.011h-0.011v-0.011h-0.011v-0.011h-0.011v-0.011h-0.011v-0.011h-0.011v0.064h-0.011v-0.011h-0.011v-0.011h-0.011v-0.011h-0.011v-0.011h-0.011v-0.011h-0.011v-0.011h-0.011c0-0.032 0.021-0.172 0.075-0.408s0.118-0.537 0.193-0.913c0.075-0.376 0.161-0.784 0.247-1.246s0.183-0.923 0.29-1.396c0.226-1.117 0.483-2.373 0.762-3.769h6.722v0.011h0.011v0.011h0.011v0.011h0.011v0.011h0.011v0.011h0.011v0.011h0.021v0.011h0.011v0.011h0.011v0.011h0.011v0.011h0.011v0.011h0.011v0.011h0.011v0.011h0.011v0.011h0.011v0.011h0.011v0.011h0.011v0.011h0.011v0.011h0.011v0.011h0.011v0.011h0.011v0.011h0.011v-0.054h0.021v0.011h0.011v0.011h0.011v0.011h0.011v0.011h0.011v0.011h0.011v0.011h0.011v0.011h0.011v0.011h0.011v0.011h0.011v0.011h0.011v0.011h0.011v0.011h0.011v0.011h0.011v0.011h0.011v0.011h0.011v-0.054h0.011v0.011h0.011v0.011h0.011v0.011h0.011v0.011h0.011v0.011h0.011v0.011h0.011v0.011h0.011v0.011h0.011v0.011h0.011v0.011h0.011v0.011h0.011v0.011h0.011v0.011h0.011v0.011h0.011v0.011h0.011v0.011h0.011v-0.064h0.011v0.011h0.011v0.011h0.011v0.011h0.011v0.011h0.011v0.011h0.011v0.011h0.011v0.011h0.011v0.011h0.011v0.011h0.011v0.011h0.011v0.011h0.011v0.011h0.011v0.011h0.011v0.011h0.011v0.011h0.011v0.011h0.011v-0.064h0.011v0.011h0.011v0.011h0.011v0.011h0.011v0.011h0.011v0.011h0.011v0.011h0.011v0.011h0.011v0.011h0.011v0.011h0.011v0.011h0.011v0.011h0.011v0.011h0.011v0.011h0.011v0.011h0.011v0.011h0.011v-0.054h0.011v2.234h-4.854l-0.365 1.922c0.279-0.075 0.612-0.118 0.999-0.118 0.644 0 1.235 0.097 1.783 0.301 0.44 0.161 0.827 0.376 1.17 0.644 0.021 0.011 0.032 0.032 0.054 0.043 0.011 0.011 0.032 0.021 0.043 0.043 0.021 0.021 0.043 0.032 0.064 0.054l0.011 0.011c0.011 0.011 0.032 0.021 0.043 0.043 0.011 0.011 0.021 0.021 0.021 0.021l0.15 0.15h0.011l0.032 0.032h0.011l0.032 0.032h0.011l0.075 0.075c0.021 0.021 0.043 0.043 0.054 0.064l0.011 0.011c0.021 0.021 0.032 0.043 0.054 0.064l0.011 0.011c0.268 0.301 0.483 0.644 0.655 1.031 0.354 0.913 0.462 1.482 0.462 2.105z"></path>
<path fill="#228b22" style="fill: var(--color5, #228b22)" d="M27.587 7.785c0.644 0 1.235 0.097 1.783 0.301s1.020 0.483 1.417 0.848c0.397 0.365 0.709 0.805 0.934 1.321s0.333 1.074 0.333 1.697c0 0.655-0.129 1.256-0.376 1.793s-0.601 0.999-1.042 1.385c-0.451 0.387-0.977 0.687-1.589 0.891-0.612 0.215-1.278 0.322-1.997 0.322-0.999 0-1.89-0.204-2.674-0.601s-1.385-0.956-1.793-1.643l1.482-1.46c0.354 0.472 0.805 0.848 1.342 1.138 0.537 0.279 1.095 0.419 1.675 0.419 0.687 0 1.256-0.193 1.697-0.591s0.666-0.924 0.666-1.579c0-0.634-0.204-1.149-0.623-1.536s-0.945-0.58-1.579-0.58c-0.419 0-0.816 0.097-1.181 0.279s-0.655 0.43-0.87 0.752h-2.244c0-0.032 0.021-0.172 0.075-0.408s0.118-0.537 0.193-0.913c0.075-0.376 0.161-0.784 0.247-1.246s0.183-0.923 0.29-1.396c0.226-1.117 0.483-2.373 0.773-3.769h6.722v2.234h-4.854l-0.558 2.91c0.15-0.161 0.376-0.29 0.677-0.387 0.279-0.129 0.644-0.183 1.074-0.183z"></path>
<path fill="#bebfbd" style="fill: var(--color10, #bebfbd)" d="M8.462 3.898c0 0.225-0.193 0.408-0.43 0.408s-0.43-0.183-0.43-0.408c0-0.225 0.193-0.408 0.43-0.408s0.43 0.183 0.43 0.408z"></path>
<path fill="#d4d6d3" style="fill: var(--color2, #d4d6d3)" d="M8.408 3.823c0 0.225-0.193 0.408-0.43 0.408s-0.43-0.183-0.43-0.408c0-0.225 0.193-0.408 0.43-0.408s0.43 0.172 0.43 0.408z"></path>
<path fill="#bebfbd" style="fill: var(--color10, #bebfbd)" d="M30.099 3.898c0 0.225-0.193 0.408-0.43 0.408s-0.43-0.183-0.43-0.408c0-0.225 0.193-0.408 0.43-0.408s0.43 0.183 0.43 0.408z"></path>
<path fill="#d4d6d3" style="fill: var(--color2, #d4d6d3)" d="M30.056 3.823c0 0.225-0.193 0.408-0.43 0.408s-0.43-0.183-0.43-0.408c0-0.225 0.193-0.408 0.43-0.408 0.226-0.011 0.43 0.172 0.43 0.408z"></path>
<path fill="#17282f" style="fill: var(--color8, #17282f)" d="M15.538 14.336v0c-0.118 0.118-0.247 0.236-0.354 0.365-0.107 0.118-0.204 0.236-0.215 0.387 0 0.011-0.011 0.011-0.011 0 0-0.15 0.043-0.311 0.129-0.43 0.107-0.15 0.279-0.236 0.451-0.322z"></path>
<path fill="#17282f" style="fill: var(--color8, #17282f)" d="M21.681 26.523c0.086 0.161 0.15 0.322 0.215 0.483 0.054 0.161 0.118 0.322 0.161 0.494-0.107-0.14-0.183-0.311-0.236-0.472-0.064-0.161-0.118-0.333-0.14-0.505z"></path>
<path fill="#17282f" style="fill: var(--color8, #17282f)" d="M27.017 23.431c0.086 0.107 0.15 0.226 0.204 0.354 0.021 0.064 0.043 0.129 0.054 0.193s0.021 0.14 0.011 0.204c-0.021-0.064-0.054-0.129-0.075-0.183-0.021-0.064-0.054-0.118-0.075-0.183-0.043-0.129-0.086-0.258-0.118-0.387z"></path>
<path fill="#175517" style="fill: var(--color3, #175517)" d="M12.714 20.596l0.73 3.157c-1.417 0.666-3.705-1.138-3.887-2.427 0.848 0.376 2.524 0.129 3.157-0.73z"></path>
<path fill="#175517" style="fill: var(--color3, #175517)" d="M25.664 20.166c-0.043 1.686-2.008 3.64-3.34 3.082v-3.812c0.859 0.58 2.341 1.675 3.34 0.73z"></path>
<path fill="#228b22" style="fill: var(--color5, #228b22)" d="M18.996 14.303c3.737 0.494 3.35 3.662 3.737 6.518 0.365 2.685 0 5.724-3.189 6.153-1.718 0.15-3.35 0.268-4.972-0.623-1.75-0.956-1.793-3.297-1.987-4.972-0.15-1.289-0.15-2.749 0.064-4.091 0.075-0.44 0.215-0.87 0.462-1.246 0.956-1.439 2.212-1.74 3.705-1.74 0.472 0 1.278-0.193 2.18 0z"></path>
<path fill="#fabc38" style="fill: var(--color11, #fabc38)" d="M17.621 20.081l1.761 1.686-1.611 2.276-1.761-1.836 1.611-2.126z"></path>
<path fill="#fff" style="fill: var(--color6, #fff)" d="M18.974 17.31c1.793-0.784 3.146 0.827 2.889 2.588-0.204 1.396-1.922 2.416-3.221 1.836-1.761-0.795-1.299-3.705 0.333-4.424z"></path>
<path fill="#060808" style="fill: var(--color12, #060808)" d="M18.062 20.413c0 0.591 0.472 1.063 1.063 1.063s1.063-0.472 1.063-1.063c0-0.591-0.472-1.063-1.063-1.063-0.58 0-1.063 0.472-1.063 1.063z"></path>
<path fill="url(#grad1)" style="fill: var(--color6, url(#grad1))" d="M19.662 22.303c-0.097 0.172-0.15 0.87 0.569 0.87s0.945-0.494 0.623-0.988c-0.44-0.666-0.44-0.612-0.44-0.612-0.011-0.354-0.44 0.193-0.752 0.73z"></path>
<path fill="#fff" style="fill: var(--color6, #fff)" d="M16.011 17.31c-1.793-0.784-3.146 0.827-2.889 2.588 0.204 1.396 1.922 2.416 3.221 1.836 1.761-0.795 1.299-3.705-0.333-4.424z"></path>
<path fill="#060808" style="fill: var(--color12, #060808)" d="M14.98 20.639c0 0.591 0.472 1.063 1.063 1.063s1.063-0.472 1.063-1.063-0.472-1.063-1.063-1.063c-0.58 0-1.063 0.472-1.063 1.063z"></path>
<path fill="#fff" style="fill: var(--color6, #fff)" d="M14.507 20.306c0 0.301 0.247 0.548 0.548 0.548s0.548-0.247 0.548-0.548c0-0.301-0.247-0.548-0.548-0.548s-0.548 0.247-0.548 0.548z"></path>
<path fill="#060808" style="fill: var(--color12, #060808)" d="M21.509 16.494c0 0-0.805-0.805-2.276-0.515 0.011 0 1.621-1.836 2.276 0.515z"></path>
<path fill="#060808" style="fill: var(--color12, #060808)" d="M15.034 16.29c0 0-1.138-0.107-2.083 1.052 0 0 0.086-2.448 2.083-1.052z"></path>
<path fill="#fabc38" style="fill: var(--color11, #fabc38)" d="M22.486 26.244c0.827 0.483-0.322 1.321-0.451 0.505 0.226 0.698-0.515 0.666-0.762 0.183-0.215-0.419-0.279-1.428 0.021-1.718 0.365-0.365 1.256-0.14 1.729 0.14 0.827 0.494 0.365 1.417-0.537 0.891z"></path>
<path fill="#fabc38" style="fill: var(--color11, #fabc38)" d="M15.646 27.501c0.827 0.483-0.322 1.321-0.451 0.505 0.226 0.698-0.515 0.666-0.762 0.183-0.215-0.419-0.279-1.428 0.021-1.718 0.365-0.365 1.256-0.14 1.729 0.14 0.827 0.494 0.365 1.407-0.537 0.891z"></path>
<path fill="#175517" style="fill: var(--color3, #175517)" d="M16.709 13.928l-0.032 0.086-0.064-0.075c-0.279-0.322-0.687-0.687-1.149-0.956-0.419-0.247-0.859-0.419-1.267-0.419 0.462 0.408 0.795 0.784 1.052 1.203 0.268 0.43 0.472 0.902 0.655 1.482l2.18-0.354c-0.021-0.44 0.14-0.891 0.376-1.299 0.204-0.354 0.462-0.677 0.709-0.945-0.655 0.258-1.074 0.655-1.428 1.299l-0.097-0.032c0.021-0.107 0.021-0.247 0-0.408-0.011-0.107-0.021-0.226-0.032-0.344-0.011-0.064-0.011-0.118-0.021-0.183-0.032-0.279-0.043-0.58-0.011-0.827-0.462 0.58-0.623 1.020-0.87 1.772z"></path>
</symbol>

<symbol id="arrow-down" viewBox="0 0 15 19">
<path d="M14.6003 10.5764C14.8562 10.8309 15 11.176 15 11.5359C15 11.8958 14.8562 12.2409 14.6003 12.4954L8.45695 18.6026C8.20094 18.8571 7.85376 19 7.49176 19C7.12976 19 6.78258 18.8571 6.52657 18.6026L0.383225 12.4954C0.134545 12.2394 -0.00305748 11.8966 5.24521e-05 11.5408C0.00316334 11.1849 0.146738 10.8445 0.399855 10.5929C0.652972 10.3413 0.995378 10.1985 1.35333 10.1955C1.71127 10.1924 2.05612 10.3292 2.3136 10.5764L6.12657 14.2502L6.12657 1.35716C6.12657 0.997221 6.2704 0.652022 6.52643 0.397504C6.78245 0.142986 7.12969 0 7.49176 0C7.85383 0 8.20107 0.142986 8.45709 0.397504C8.71311 0.652022 8.85695 0.997221 8.85695 1.35716L8.85695 14.2502L12.6699 10.5764C12.9259 10.3219 13.2731 10.179 13.6351 10.179C13.9971 10.179 14.3443 10.3219 14.6003 10.5764Z" fill="#228B22"/>
</symbol>

<symbol id="arrow-right-white" viewBox="0 0 15 19">
<path d="M11.0747 0.899708C11.3292 0.643775 11.6743 0.5 12.0342 0.5C12.3941 0.5 12.7392 0.643775 12.9937 0.899708L19.1009 7.04305C19.3554 7.29906 19.4983 7.64624 19.4983 8.00824C19.4983 8.37024 19.3554 8.71742 19.1009 8.97343L12.9937 15.1168C12.7377 15.3655 12.3949 15.5031 12.0391 15.4999C11.6832 15.4968 11.3428 15.3533 11.0912 15.1001C10.8396 14.847 10.6968 14.5046 10.6937 14.1467C10.6907 13.7887 10.8274 13.4439 11.0747 13.1864L14.7485 9.37343H1.85545C1.49551 9.37343 1.15031 9.2296 0.895795 8.97357C0.641278 8.71755 0.498291 8.37031 0.498291 8.00824C0.498291 7.64617 0.641278 7.29893 0.895795 7.04291C1.15031 6.78689 1.49551 6.64305 1.85545 6.64305H14.7485L11.0747 2.83008C10.8202 2.57407 10.6773 2.2269 10.6773 1.8649C10.6773 1.5029 10.8202 1.15572 11.0747 0.899708Z" fill="white"/>
</symbol>


<symbol id="arrow-next-role" viewBox="0 0 43 32">
<path  d="M23.63 0.853c0.543-0.546 1.279-0.853 2.047-0.853s1.504 0.307 2.047 0.853l13.029 13.106c0.543 0.546 0.848 1.287 0.848 2.059s-0.305 1.513-0.848 2.059l-13.029 13.106c-0.546 0.531-1.277 0.824-2.036 0.817s-1.485-0.313-2.022-0.853c-0.537-0.54-0.841-1.27-0.848-2.034s0.285-1.499 0.813-2.049l7.837-8.134h-27.505c-0.768 0-1.504-0.307-2.047-0.853s-0.848-1.287-0.848-2.059c0-0.772 0.305-1.513 0.848-2.059s1.279-0.853 2.047-0.853h27.505l-7.837-8.134c-0.543-0.546-0.848-1.287-0.848-2.059s0.305-1.513 0.848-2.059z"></path>
</symbol>



<symbol id="vector-1" viewBox="0 0 40 32">
<path fill="#228b22" style="fill: var(--color1, #228b22)" d="M3.518 27.825c-2.289-2.431-3.518-5.158-3.518-9.578 0-7.778 5.46-14.749 13.4-18.196l1.984 3.062c-7.411 4.009-8.86 9.211-9.438 12.491 1.193-0.618 2.756-0.833 4.287-0.691 4.009 0.371 7.169 3.662 7.169 7.753 0 2.063-0.819 4.041-2.278 5.5s-3.437 2.278-5.5 2.278c-1.141-0.010-2.268-0.247-3.317-0.697s-1.997-1.104-2.79-1.923zM25.74 27.825c-2.289-2.431-3.518-5.158-3.518-9.578 0-7.778 5.46-14.749 13.4-18.196l1.985 3.062c-7.411 4.009-8.86 9.211-9.438 12.491 1.193-0.618 2.756-0.833 4.287-0.691 4.009 0.371 7.169 3.662 7.169 7.753 0 2.063-0.819 4.041-2.278 5.5s-3.437 2.278-5.5 2.278c-1.141-0.010-2.268-0.247-3.317-0.697s-1.997-1.104-2.79-1.923z"></path>
</symbol>

<symbol id="arrow-right" viewBox="0 0 32 32">
<path fill="none" stroke="#fff" style="stroke: var(--color1, #fff)" stroke-linejoin="miter" stroke-linecap="butt" stroke-miterlimit="4" stroke-width="1.3333" d="M16 0.667c8.468 0 15.333 6.865 15.333 15.333s-6.865 15.333-15.333 15.333c-8.468 0-15.333-6.865-15.333-15.333s6.865-15.333 15.333-15.333z"></path>
<path fill="#fff" style="fill: var(--color1, #fff)" d="M16.906 9.67c0.214-0.216 0.505-0.337 0.808-0.337s0.594 0.121 0.808 0.337l5.143 5.173c0.214 0.215 0.335 0.508 0.335 0.813s-0.12 0.597-0.335 0.813l-5.143 5.173c-0.215 0.209-0.504 0.325-0.804 0.323s-0.586-0.124-0.798-0.337c-0.212-0.213-0.332-0.501-0.335-0.803s0.113-0.592 0.321-0.809l3.094-3.211h-10.857c-0.303 0-0.594-0.121-0.808-0.337s-0.335-0.508-0.335-0.813c0-0.305 0.12-0.597 0.335-0.813s0.505-0.337 0.808-0.337h10.857l-3.094-3.211c-0.214-0.216-0.335-0.508-0.335-0.813s0.12-0.597 0.335-0.813z"></path>
</symbol>


<symbol id="arrow-left" viewBox="0 0 32 32">
<path fill="none" stroke="#fff" style="stroke: var(--color1, #fff)" stroke-linejoin="miter" stroke-linecap="butt" stroke-miterlimit="4" stroke-width="1.3333" d="M16 31.333c-8.468 0-15.333-6.865-15.333-15.333s6.865-15.333 15.333-15.333c8.468 0 15.333 6.865 15.333 15.333s-6.865 15.333-15.333 15.333z"></path>
<path fill="#fff" style="fill: var(--color1, #fff)" d="M15.094 22.33c-0.214 0.215-0.505 0.337-0.808 0.337s-0.594-0.121-0.808-0.337l-5.143-5.173c-0.214-0.215-0.335-0.508-0.335-0.813s0.12-0.597 0.335-0.813l5.143-5.173c0.215-0.209 0.504-0.325 0.804-0.323s0.586 0.124 0.798 0.337c0.212 0.213 0.332 0.502 0.335 0.803s-0.113 0.592-0.321 0.809l-3.094 3.211h10.857c0.303 0 0.594 0.121 0.808 0.337s0.335 0.508 0.335 0.813c0 0.305-0.12 0.597-0.335 0.813s-0.505 0.337-0.808 0.337h-10.857l3.094 3.211c0.214 0.216 0.335 0.508 0.335 0.813s-0.12 0.597-0.335 0.813z"></path>
</symbol>

</defs>
</svg>